<svg xmlns="http://www.w3.org/2000/svg" viewBox="0 0 67 105"><defs><style>.cls-1{fill:#fff;}.cls-2{fill:#00cf75;}.cls-3{fill:none;}.cls-4{isolation:isolate;}</style></defs><title>0C</title><g id="Layer_1" data-name="Layer 1"><rect class="cls-1" width="67" height="105" rx="6"/><polygon class="cls-2" points="13 25 16 22 19 25 13 25"/><rect class="cls-3" x="6" y="5" width="20" height="20"/><path class="cls-2" d="M21,12.34a4.48,4.48,0,0,0-.64.07,5,5,0,1,0-8.72,0,4.48,4.48,0,0,0-.64-.07,5,5,0,0,0,0,10h.19a5.18,5.18,0,0,0,3.68-1.52L16,19.69l1.13,1.13a5.18,5.18,0,0,0,3.68,1.52H21a5,5,0,0,0,0-10Z"/></g><g id="Layer_2" data-name="Layer 2"><g id="A"><g class="cls-4"><path class="cls-2" d="M6.92,47V34.36h-3v-2.2a7.72,7.72,0,0,0,2.41-.32A3.18,3.18,0,0,0,7.78,31a2.41,2.41,0,0,0,.59-1.32H11V47Z"/><path class="cls-2" d="M21.39,29.41a6.07,6.07,0,0,1,5.05,2.33,10.51,10.51,0,0,1,1.83,6.62,10.47,10.47,0,0,1-1.81,6.58,6,6,0,0,1-5.08,2.32,6.12,6.12,0,0,1-5.1-2.32,10.46,10.46,0,0,1-1.82-6.57,12.79,12.79,0,0,1,.83-4.86,6.66,6.66,0,0,1,2.39-3A6.47,6.47,0,0,1,21.39,29.41Zm0,14.57a2.11,2.11,0,0,0,2-1.28A10.76,10.76,0,0,0,24,38.38a11.58,11.58,0,0,0-.62-4.47,2.22,2.22,0,0,0-4.07,0,11.32,11.32,0,0,0-.64,4.46,10.55,10.55,0,0,0,.63,4.31A2.13,2.13,0,0,0,21.37,44Z"/></g></g></g></svg>