<svg xmlns="http://www.w3.org/2000/svg" viewBox="0 0 67 105"><defs><style>.cls-1{fill:#fff;}.cls-2{fill:none;opacity:0.15;}.cls-3{fill:#00cf75;}.cls-4{isolation:isolate;}</style></defs><title>0C</title><g id="Layer_1" data-name="Layer 1"><rect class="cls-1" width="67" height="105" rx="6"/><rect class="cls-2" x="6" y="6" width="26" height="26"/><path class="cls-3" d="M27.39,13.42a8.45,8.45,0,0,0-16.78,0,8.45,8.45,0,0,0,3.84,16h9.1a8.45,8.45,0,0,0,3.84-16Z"/><polygon class="cls-3" points="21.6 32 19 29.4 16.4 32 21.6 32"/><path class="cls-1" d="M24.94,15.13a5.07,5.07,0,0,0,0-.68,6,6,0,0,0-12,0,5.38,5.38,0,0,0,0,.68,6,6,0,0,0,1.39,11.8A5.33,5.33,0,0,0,19,24.38a5.32,5.32,0,0,0,4.55,2.55,6,6,0,0,0,1.39-11.8Zm-1.39,10.5A4.68,4.68,0,0,1,19,22a4.68,4.68,0,0,1-4.55,3.59h0A4.69,4.69,0,0,1,9.77,21a4.75,4.75,0,0,1,1.81-3.69l.05,0,.26-.18L12,17l.23-.14.21-.1.17-.08A3.12,3.12,0,0,1,13,16.5l.13,0a4.79,4.79,0,0,1,1.32-.19h.24A4.35,4.35,0,0,1,14.36,15v0c0-.05,0-.1,0-.16s0-.21,0-.31v-.12c0-.11,0-.22,0-.32s0-.25.05-.37h0a4.67,4.67,0,0,1,9.22,0h0c0,.12,0,.25.05.37s0,.21,0,.32v.12c0,.11,0,.21,0,.32s0,.1,0,.16v0a4.42,4.42,0,0,1-.33,1.26h.24a4.55,4.55,0,0,1,1.28.18h0A4.63,4.63,0,0,1,26,17h0a4.67,4.67,0,0,1-2.47,8.64Z"/></g><g id="Layer_2" data-name="Layer 2"><g id="A"><g class="cls-4"><path class="cls-3" d="M9.92,56V43.36h-3v-2.2a7.72,7.72,0,0,0,2.41-.32A3.18,3.18,0,0,0,10.78,40a2.41,2.41,0,0,0,.59-1.32H14V56Z"/><path class="cls-3" d="M24.39,38.41a6.07,6.07,0,0,1,5.05,2.33,10.51,10.51,0,0,1,1.83,6.62,10.47,10.47,0,0,1-1.81,6.58,6,6,0,0,1-5.08,2.32,6.12,6.12,0,0,1-5.1-2.32,10.46,10.46,0,0,1-1.82-6.57,12.79,12.79,0,0,1,.83-4.86,6.66,6.66,0,0,1,2.39-3A6.47,6.47,0,0,1,24.39,38.41Zm0,14.57a2.11,2.11,0,0,0,2-1.28A10.76,10.76,0,0,0,27,47.38a11.58,11.58,0,0,0-.62-4.47,2.22,2.22,0,0,0-4.07,0,11.32,11.32,0,0,0-.64,4.46,10.55,10.55,0,0,0,.63,4.31A2.13,2.13,0,0,0,24.37,53Z"/></g></g></g></svg>