<svg xmlns="http://www.w3.org/2000/svg" viewBox="0 0 67 105"><defs><style>.cls-1{fill:#fff;}.cls-2{fill:none;opacity:0.15;}.cls-3{fill:#f50;}.cls-4{isolation:isolate;}</style></defs><title>0H</title><g id="Layer_1" data-name="Layer 1"><rect class="cls-1" width="67" height="105" rx="6"/><rect class="cls-2" x="6" y="6" width="26" height="26"/><path class="cls-3" d="M19,32,8.16,21.16a7.35,7.35,0,0,1,10.4-10.4l.44.44.44-.44a7.35,7.35,0,0,1,10.4,10.4Z"/><path class="cls-3" d="M24.64,11.21a4.69,4.69,0,0,0-3.36,1.39l-.44.44L19,14.88,17.16,13l-.44-.44a4.76,4.76,0,0,0-6.72,0,4.76,4.76,0,0,0,0,6.72l9,9,9-9a4.76,4.76,0,0,0,0-6.72A4.71,4.71,0,0,0,24.64,11.21Z"/><path class="cls-1" d="M24.64,12.51a3.46,3.46,0,0,1,2.44,5.9L19,26.48l-8.08-8.07a3.46,3.46,0,0,1,4.89-4.89l.43.44,1.84,1.84.92.92.92-.92L21.76,14l.44-.44a3.42,3.42,0,0,1,2.44-1m0-1.3a4.69,4.69,0,0,0-3.36,1.39l-.44.44L19,14.88,17.16,13l-.44-.44a4.76,4.76,0,0,0-6.72,0,4.76,4.76,0,0,0,0,6.72l9,9,9-9a4.76,4.76,0,0,0,0-6.72,4.71,4.71,0,0,0-3.36-1.39Z"/></g><g id="Layer_2" data-name="Layer 2"><g id="A" class="cls-4"><g class="cls-4"><path class="cls-3" d="M9.92,56V43.36h-3v-2.2a7.72,7.72,0,0,0,2.41-.32A3.18,3.18,0,0,0,10.78,40a2.41,2.41,0,0,0,.59-1.32H14V56Z"/><path class="cls-3" d="M24.39,38.41a6.07,6.07,0,0,1,5.05,2.33,10.51,10.51,0,0,1,1.83,6.62,10.47,10.47,0,0,1-1.81,6.58,6,6,0,0,1-5.08,2.32,6.12,6.12,0,0,1-5.1-2.32,10.46,10.46,0,0,1-1.82-6.57,12.79,12.79,0,0,1,.83-4.86,6.66,6.66,0,0,1,2.39-3A6.47,6.47,0,0,1,24.39,38.41Zm0,14.57a2.11,2.11,0,0,0,2-1.28A10.76,10.76,0,0,0,27,47.38a11.58,11.58,0,0,0-.62-4.47,2.22,2.22,0,0,0-4.07,0,11.32,11.32,0,0,0-.64,4.46,10.55,10.55,0,0,0,.63,4.31A2.13,2.13,0,0,0,24.37,53Z"/></g></g></g></svg>