<svg xmlns="http://www.w3.org/2000/svg" viewBox="0 0 67 105"><defs><style>.cls-1{fill:#fff;}.cls-2{fill:#f50;}.cls-3{isolation:isolate;}</style></defs><g id="Layer_3" data-name="Layer 3"><rect class="cls-1" width="67" height="105" rx="6"/></g><g id="Layer_1" data-name="Layer 1"><path class="cls-2" d="M29.84,32.76a7.36,7.36,0,0,0-10.4,0L19,33.2l-.44-.44a7.35,7.35,0,0,0-10.4,10.4L19,54,29.84,43.16A7.36,7.36,0,0,0,29.84,32.76Z"/></g><g id="Layer_2" data-name="Layer 2"><g id="A" class="cls-3"><g class="cls-3"><path class="cls-2" d="M9.92,24V11.36h-3V9.16a7.72,7.72,0,0,0,2.41-.32A3.18,3.18,0,0,0,10.78,8a2.41,2.41,0,0,0,.59-1.32H14V24Z"/><path class="cls-2" d="M24.39,6.41a6.07,6.07,0,0,1,5.05,2.33,10.51,10.51,0,0,1,1.83,6.62,10.47,10.47,0,0,1-1.81,6.58,6,6,0,0,1-5.08,2.32,6.12,6.12,0,0,1-5.1-2.32,10.46,10.46,0,0,1-1.82-6.57,12.79,12.79,0,0,1,.83-4.86,6.66,6.66,0,0,1,2.39-3A6.47,6.47,0,0,1,24.39,6.41Zm0,14.57a2.11,2.11,0,0,0,2-1.28A10.76,10.76,0,0,0,27,15.38a11.58,11.58,0,0,0-.62-4.47,2.22,2.22,0,0,0-4.07,0,11.32,11.32,0,0,0-.64,4.46,10.55,10.55,0,0,0,.63,4.31A2.13,2.13,0,0,0,24.37,21Z"/></g></g></g></svg>