<svg xmlns="http://www.w3.org/2000/svg" viewBox="0 0 67 105"><defs><style>.cls-1{fill:#fff;}.cls-2{fill:#00cf75;}.cls-3{fill:none;}.cls-4{isolation:isolate;}</style></defs><title>2C</title><g id="Layer_1" data-name="Layer 1"><rect class="cls-1" width="67" height="105" rx="6"/><polygon class="cls-2" points="13 25 16 22 19 25 13 25"/><rect class="cls-3" x="6" y="5" width="20" height="20"/><path class="cls-2" d="M21,12.34a4.48,4.48,0,0,0-.64.07,5,5,0,1,0-8.72,0,4.48,4.48,0,0,0-.64-.07,5,5,0,0,0,0,10h.19a5.18,5.18,0,0,0,3.68-1.52L16,19.69l1.13,1.13a5.18,5.18,0,0,0,3.68,1.52H21a5,5,0,0,0,0-10Z"/></g><g id="Layer_2" data-name="Layer 2"><g id="A"><g class="cls-4"><path class="cls-2" d="M9.56,47V44.13a5,5,0,0,1,.49-2.27,5.54,5.54,0,0,1,1.3-1.66A10.08,10.08,0,0,1,13.12,39c.64-.35,1.29-.68,1.93-1s1.24-.6,1.77-.9a5.32,5.32,0,0,0,1.3-1,1.81,1.81,0,0,0,.49-1.27A1.92,1.92,0,0,0,18,33.33a2.46,2.46,0,0,0-1.74-.59,3.16,3.16,0,0,0-2,.67,3.25,3.25,0,0,0-1.1,2.14H9.27a6.4,6.4,0,0,1,.79-3.12,5.54,5.54,0,0,1,2.33-2.21,8.53,8.53,0,0,1,3.94-.81,8.2,8.2,0,0,1,3.51.68A5.22,5.22,0,0,1,22.1,32a5,5,0,0,1,.79,2.8A4.89,4.89,0,0,1,22.42,37a5.2,5.2,0,0,1-1.26,1.6,9.21,9.21,0,0,1-1.72,1.15q-.93.48-1.86.87c-.63.27-1.2.53-1.72.79a4.52,4.52,0,0,0-1.26.89,1.65,1.65,0,0,0-.48,1.19v.08h8.71V47Z"/></g></g></g></svg>