<svg xmlns="http://www.w3.org/2000/svg" viewBox="0 0 67 105"><defs><style>.cls-1{fill:#fff;}.cls-2{fill:none;opacity:0.15;}.cls-3{fill:#00cf75;}.cls-4{isolation:isolate;}</style></defs><title>2C</title><g id="Layer_1" data-name="Layer 1"><rect class="cls-1" width="67" height="105" rx="6"/><rect class="cls-2" x="6" y="6" width="26" height="26"/><path class="cls-3" d="M27.39,13.42a8.45,8.45,0,0,0-16.78,0,8.45,8.45,0,0,0,3.84,16h9.1a8.45,8.45,0,0,0,3.84-16Z"/><polygon class="cls-3" points="21.6 32 19 29.4 16.4 32 21.6 32"/><path class="cls-1" d="M24.94,15.13a5.07,5.07,0,0,0,0-.68,6,6,0,0,0-12,0,5.38,5.38,0,0,0,0,.68,6,6,0,0,0,1.39,11.8A5.33,5.33,0,0,0,19,24.38a5.32,5.32,0,0,0,4.55,2.55,6,6,0,0,0,1.39-11.8Zm-1.39,10.5A4.68,4.68,0,0,1,19,22a4.68,4.68,0,0,1-4.55,3.59h0A4.69,4.69,0,0,1,9.77,21a4.75,4.75,0,0,1,1.81-3.69l.05,0,.26-.18L12,17l.23-.14.21-.1.17-.08A3.12,3.12,0,0,1,13,16.5l.13,0a4.79,4.79,0,0,1,1.32-.19h.24A4.35,4.35,0,0,1,14.36,15v0c0-.05,0-.1,0-.16s0-.21,0-.31v-.12c0-.11,0-.22,0-.32s0-.25.05-.37h0a4.67,4.67,0,0,1,9.22,0h0c0,.12,0,.25.05.37s0,.21,0,.32v.12c0,.11,0,.21,0,.32s0,.1,0,.16v0a4.42,4.42,0,0,1-.33,1.26h.24a4.55,4.55,0,0,1,1.28.18h0A4.63,4.63,0,0,1,26,17h0a4.67,4.67,0,0,1-2.47,8.64Z"/></g><g id="Layer_2" data-name="Layer 2"><g id="A"><g class="cls-4"><path class="cls-3" d="M12.56,56V53.13a5,5,0,0,1,.49-2.27,5.54,5.54,0,0,1,1.3-1.66A10.08,10.08,0,0,1,16.12,48c.64-.35,1.29-.68,1.93-1s1.24-.6,1.77-.9a5.32,5.32,0,0,0,1.3-1,1.81,1.81,0,0,0,.49-1.27A1.92,1.92,0,0,0,21,42.33a2.46,2.46,0,0,0-1.74-.59,3.16,3.16,0,0,0-2,.67,3.25,3.25,0,0,0-1.1,2.14H12.27a6.4,6.4,0,0,1,.79-3.12,5.54,5.54,0,0,1,2.33-2.21,8.53,8.53,0,0,1,3.94-.81,8.2,8.2,0,0,1,3.51.68A5.22,5.22,0,0,1,25.1,41a5,5,0,0,1,.79,2.8A4.89,4.89,0,0,1,25.42,46a5.2,5.2,0,0,1-1.26,1.6,9.21,9.21,0,0,1-1.72,1.15q-.93.48-1.86.87c-.63.27-1.2.53-1.72.79a4.52,4.52,0,0,0-1.26.89,1.65,1.65,0,0,0-.48,1.19v.08h8.71V56Z"/></g></g></g></svg>