<svg id="Layer_1" data-name="Layer 1" xmlns="http://www.w3.org/2000/svg" viewBox="0 0 67 105"><defs><style>.cls-1{fill:#fff;}.cls-2{fill:none;opacity:0.15;}.cls-3{isolation:isolate;}</style></defs><rect class="cls-1" width="67" height="105" rx="6"/><rect class="cls-2" x="6" y="6" width="26" height="26"/><path d="M29.84,16.84,19,6,8.16,16.84a7.36,7.36,0,0,0,0,10.4,7.48,7.48,0,0,0,2.25,1.53,7.4,7.4,0,0,0,2.95.62H24.64a6.35,6.35,0,0,0,1.07-.08,7.35,7.35,0,0,0,4.13-12.47Z"/><path d="M13.36,26.79H24.64A4.71,4.71,0,0,0,28,25.4a4.76,4.76,0,0,0,0-6.72l-9-9-9,9a4.76,4.76,0,0,0,0,6.72A4.71,4.71,0,0,0,13.36,26.79Z"/><path class="cls-1" d="M19,11.52l8.08,8.07a3.46,3.46,0,0,1-2.44,5.9H13.36a3.46,3.46,0,0,1-2.44-5.9L19,11.52m0-1.84-9,9a4.76,4.76,0,0,0,0,6.72,4.71,4.71,0,0,0,3.36,1.39H24.64A4.71,4.71,0,0,0,28,25.4a4.76,4.76,0,0,0,0-6.72l-9-9Z"/><polygon points="16.41 32 19.01 29.4 21.61 32 16.41 32"/><g id="A"><g class="cls-3"><path d="M12.56,56V53.13a5,5,0,0,1,.49-2.27,5.54,5.54,0,0,1,1.3-1.66A10.08,10.08,0,0,1,16.12,48c.64-.35,1.29-.68,1.93-1s1.24-.6,1.77-.9a5.32,5.32,0,0,0,1.3-1,1.81,1.81,0,0,0,.49-1.27A1.92,1.92,0,0,0,21,42.33a2.46,2.46,0,0,0-1.74-.59,3.16,3.16,0,0,0-2,.67,3.25,3.25,0,0,0-1.1,2.14H12.27a6.4,6.4,0,0,1,.79-3.12,5.54,5.54,0,0,1,2.33-2.21,8.53,8.53,0,0,1,3.94-.81,8.2,8.2,0,0,1,3.51.68A5.22,5.22,0,0,1,25.1,41a5,5,0,0,1,.79,2.8A4.89,4.89,0,0,1,25.42,46a5.2,5.2,0,0,1-1.26,1.6,9.21,9.21,0,0,1-1.72,1.15q-.93.48-1.86.87c-.63.27-1.2.53-1.72.79a4.52,4.52,0,0,0-1.26.89,1.65,1.65,0,0,0-.48,1.19v.08h8.71V56Z"/></g></g></svg>