<svg xmlns="http://www.w3.org/2000/svg" viewBox="0 0 67 105"><defs><style>.cls-1{fill:#fff;}.cls-2{fill:none;opacity:0.15;}.cls-3{isolation:isolate;}</style></defs><g id="Layer_1" data-name="Layer 1"><rect class="cls-1" width="67" height="105" rx="6"/><rect class="cls-2" x="6" y="6" width="26" height="26"/><path d="M27.39,13.42a8.45,8.45,0,0,0-16.78,0,8.45,8.45,0,0,0,3.84,16h9.1a8.45,8.45,0,0,0,3.84-16Z"/><polygon points="21.6 32 19 29.4 16.4 32 21.6 32"/><path class="cls-1" d="M24.94,15.13a5.07,5.07,0,0,0,0-.68,6,6,0,0,0-12,0,5.38,5.38,0,0,0,0,.68,6,6,0,0,0,1.39,11.8A5.33,5.33,0,0,0,19,24.38a5.32,5.32,0,0,0,4.55,2.55,6,6,0,0,0,1.39-11.8Zm-1.39,10.5A4.68,4.68,0,0,1,19,22a4.68,4.68,0,0,1-4.55,3.59h0A4.69,4.69,0,0,1,9.77,21a4.75,4.75,0,0,1,1.81-3.69l.05,0,.26-.18L12,17l.23-.14.21-.1.17-.08A3.12,3.12,0,0,1,13,16.5l.13,0a4.79,4.79,0,0,1,1.32-.19h.24A4.35,4.35,0,0,1,14.36,15v0c0-.05,0-.1,0-.16s0-.21,0-.31v-.12c0-.11,0-.22,0-.32s0-.25.05-.37h0a4.67,4.67,0,0,1,9.22,0h0c0,.12,0,.25.05.37s0,.21,0,.32v.12c0,.11,0,.21,0,.32s0,.1,0,.16v0a4.42,4.42,0,0,1-.33,1.26h.24a4.55,4.55,0,0,1,1.28.18h0A4.63,4.63,0,0,1,26,17h0a4.67,4.67,0,0,1-2.47,8.64Z"/></g><g id="Layer_2" data-name="Layer 2"><g id="A"><g class="cls-3"><path d="M12,44.11A5.08,5.08,0,0,1,15.39,39a9.49,9.49,0,0,1,3.5-.61,12,12,0,0,1,3.58.49A5.39,5.39,0,0,1,25,40.44a4,4,0,0,1,.91,2.71,3.6,3.6,0,0,1-.71,2.23,4.74,4.74,0,0,1-2.39,1.52,6,6,0,0,1,1.68.76A4.27,4.27,0,0,1,25.77,49a3.81,3.81,0,0,1,.51,2,4.31,4.31,0,0,1-.6,2.3A4.82,4.82,0,0,1,24.05,55a7.9,7.9,0,0,1-2.39,1,12,12,0,0,1-2.86.32,9.05,9.05,0,0,1-3.74-.69,5.2,5.2,0,0,1-2.31-2,6.07,6.07,0,0,1-.8-3.12h3.89a2.94,2.94,0,0,0,1.08,2,3.35,3.35,0,0,0,1.91.56,4.58,4.58,0,0,0,1.66-.27A2.5,2.5,0,0,0,21.56,52a1.81,1.81,0,0,0,.36-1.12,1.73,1.73,0,0,0-.35-1.06,2.29,2.29,0,0,0-1-.72,4.37,4.37,0,0,0-1.52-.3l-1.69-.09V45.5l1.5-.1a4.14,4.14,0,0,0,1.45-.31,2.18,2.18,0,0,0,.93-.71,1.74,1.74,0,0,0,.32-1.05,1.38,1.38,0,0,0-.38-1,2.32,2.32,0,0,0-1-.61,4.32,4.32,0,0,0-1.39-.21,3.93,3.93,0,0,0-1.41.24,2.18,2.18,0,0,0-1,.8,3.23,3.23,0,0,0-.48,1.55Z"/></g></g></g></svg>