<svg xmlns="http://www.w3.org/2000/svg" viewBox="0 0 67 105"><defs><style>.cls-1{fill:#fff;}.cls-2{fill:none;}.cls-3{isolation:isolate;}</style></defs><title>4S</title><g id="Layer_1" data-name="Layer 1"><rect class="cls-1" width="67" height="105" rx="6"/><polygon points="12.79 24.92 15.79 21.92 18.79 24.92 12.79 24.92"/><path d="M20.6,22.26a5.14,5.14,0,0,1-3.67-1.52l-1.14-1.13-1.13,1.13A5.19,5.19,0,0,1,7.31,13.4l8.48-8.48,8.48,8.48a5.19,5.19,0,0,1-3.67,8.86Z"/><rect class="cls-2" x="5.79" y="4.92" width="20" height="20"/></g><g id="Layer_2" data-name="Layer 2"><g id="A"><g class="cls-3"><path d="M16.91,29.65h4v10.4h2.6v3.37h-2.6V47H17V43.42H9.08V40.16Zm-4.09,10.4H17V34.46Z"/></g></g></g></svg>