<svg xmlns="http://www.w3.org/2000/svg" viewBox="0 0 67 105"><defs><style>.cls-1{fill:#fff;}.cls-2{fill:#00cf75;}.cls-3{fill:none;}.cls-4{isolation:isolate;}</style></defs><title>5C</title><g id="Layer_1" data-name="Layer 1"><rect class="cls-1" width="67" height="105" rx="6"/><polygon class="cls-2" points="13 25 16 22 19 25 13 25"/><rect class="cls-3" x="6" y="5" width="20" height="20"/><path class="cls-2" d="M21,12.34a4.48,4.48,0,0,0-.64.07,5,5,0,1,0-8.72,0,4.48,4.48,0,0,0-.64-.07,5,5,0,0,0,0,10h.19a5.18,5.18,0,0,0,3.68-1.52L16,19.69l1.13,1.13a5.18,5.18,0,0,0,3.68,1.52H21a5,5,0,0,0,0-10Z"/></g><g id="Layer_2" data-name="Layer 2"><g id="A"><g class="cls-4"><path class="cls-2" d="M10.73,29.65H22.22L22.05,33H13.89l-.3,3.53a14.29,14.29,0,0,1,1.81-.61,7,7,0,0,1,1.78-.21,7.34,7.34,0,0,1,3.21.67,5.16,5.16,0,0,1,2.2,1.93,6.28,6.28,0,0,1-.06,6.24,5.51,5.51,0,0,1-2.41,2,8.77,8.77,0,0,1-3.71.71,10.06,10.06,0,0,1-3.25-.51,8.5,8.5,0,0,1-2.62-1.39,6.46,6.46,0,0,1-1.71-2l3.11-2a11.06,11.06,0,0,0,1,1.34,4.43,4.43,0,0,0,1.28,1A3.78,3.78,0,0,0,16,44a3.46,3.46,0,0,0,2.28-.72,2.27,2.27,0,0,0,.86-1.82,2.3,2.3,0,0,0-.37-1.27,2.8,2.8,0,0,0-1-.93,3.61,3.61,0,0,0-1.64-.34,4.57,4.57,0,0,0-.85.07,5.09,5.09,0,0,0-.84.27,8.62,8.62,0,0,0-1,.54.54.54,0,0,1-.27.08,1,1,0,0,1-.3-.1L9.92,38.36Z"/></g></g></g></svg>