<svg xmlns="http://www.w3.org/2000/svg" viewBox="0 0 67 105"><defs><style>.cls-1{fill:#fff;}.cls-2{fill:#f50;}.cls-3{fill:none;}.cls-4{isolation:isolate;}</style></defs><title>5H</title><g id="Layer_1" data-name="Layer 1"><rect class="cls-1" width="67" height="105" rx="6"/><path class="cls-2" d="M11.19,7.66a5.18,5.18,0,0,1,3.68,1.52L16,10.31l1.13-1.13a5.19,5.19,0,0,1,7.35,7.34L16,25,7.52,16.52a5.19,5.19,0,0,1,3.67-8.86Z"/><rect class="cls-3" x="6" y="5" width="20" height="20"/></g><g id="Layer_2" data-name="Layer 2"><g id="A" class="cls-4"><g class="cls-4"><path class="cls-2" d="M10.73,29.65H22.22L22.05,33H13.89l-.3,3.53a14.29,14.29,0,0,1,1.81-.61,7,7,0,0,1,1.78-.21,7.34,7.34,0,0,1,3.21.67,5.16,5.16,0,0,1,2.2,1.93,6.28,6.28,0,0,1-.06,6.24,5.51,5.51,0,0,1-2.41,2,8.77,8.77,0,0,1-3.71.71,10.06,10.06,0,0,1-3.25-.51,8.5,8.5,0,0,1-2.62-1.39,6.46,6.46,0,0,1-1.71-2l3.11-2a11.06,11.06,0,0,0,1,1.34,4.43,4.43,0,0,0,1.28,1A3.78,3.78,0,0,0,16,44a3.46,3.46,0,0,0,2.28-.72,2.27,2.27,0,0,0,.86-1.82,2.3,2.3,0,0,0-.37-1.27,2.8,2.8,0,0,0-1-.93,3.61,3.61,0,0,0-1.64-.34,4.57,4.57,0,0,0-.85.07,5.09,5.09,0,0,0-.84.27,8.62,8.62,0,0,0-1,.54.54.54,0,0,1-.27.08,1,1,0,0,1-.3-.1L9.92,38.36Z"/></g></g></g></svg>