<svg xmlns="http://www.w3.org/2000/svg" viewBox="0 0 67 105"><defs><style>.cls-1{fill:#fff;}.cls-2{fill:none;opacity:0.15;}.cls-3{isolation:isolate;}</style></defs><g id="Layer_1" data-name="Layer 1"><rect class="cls-1" width="67" height="105" rx="6"/><rect class="cls-2" x="6" y="6" width="26" height="26"/><path d="M29.84,16.84,19,6,8.16,16.84a7.36,7.36,0,0,0,0,10.4,7.48,7.48,0,0,0,2.25,1.53,7.4,7.4,0,0,0,2.95.62H24.64a6.35,6.35,0,0,0,1.07-.08,7.35,7.35,0,0,0,4.13-12.47Z"/><path d="M13.36,26.79H24.64A4.71,4.71,0,0,0,28,25.4a4.76,4.76,0,0,0,0-6.72l-9-9-9,9a4.76,4.76,0,0,0,0,6.72A4.71,4.71,0,0,0,13.36,26.79Z"/><path class="cls-1" d="M19,11.52l8.08,8.07a3.46,3.46,0,0,1-2.44,5.9H13.36a3.46,3.46,0,0,1-2.44-5.9L19,11.52m0-1.84-9,9a4.76,4.76,0,0,0,0,6.72,4.71,4.71,0,0,0,3.36,1.39H24.64A4.71,4.71,0,0,0,28,25.4a4.76,4.76,0,0,0,0-6.72l-9-9Z"/><polygon points="16.41 32 19.01 29.4 21.61 32 16.41 32"/></g><g id="Layer_2" data-name="Layer 2"><g id="A"><g class="cls-3"><path d="M13.73,38.65H25.22L25.05,42H16.89l-.3,3.53a14.29,14.29,0,0,1,1.81-.61,7,7,0,0,1,1.78-.21,7.34,7.34,0,0,1,3.21.67,5.16,5.16,0,0,1,2.2,1.93,6.28,6.28,0,0,1-.06,6.24,5.51,5.51,0,0,1-2.41,2,8.77,8.77,0,0,1-3.71.71,10.06,10.06,0,0,1-3.25-.51,8.5,8.5,0,0,1-2.62-1.39,6.46,6.46,0,0,1-1.71-2l3.11-2a11.06,11.06,0,0,0,1,1.34,4.43,4.43,0,0,0,1.28,1A3.78,3.78,0,0,0,19,53a3.46,3.46,0,0,0,2.28-.72,2.27,2.27,0,0,0,.86-1.82,2.3,2.3,0,0,0-.37-1.27,2.8,2.8,0,0,0-1-.93,3.61,3.61,0,0,0-1.64-.34,4.57,4.57,0,0,0-.85.07,5.09,5.09,0,0,0-.84.27,8.62,8.62,0,0,0-1,.54.54.54,0,0,1-.27.08,1,1,0,0,1-.3-.1l-2.86-1.44Z"/></g></g></g></svg>