<svg xmlns="http://www.w3.org/2000/svg" viewBox="0 0 67 105"><defs><style>.cls-1{fill:#fff;}.cls-2{fill:none;opacity:0.15;}.cls-3{isolation:isolate;}</style></defs><g id="Layer_1" data-name="Layer 1"><rect class="cls-1" width="67" height="105" rx="6"/><rect class="cls-2" x="6" y="6" width="26" height="26"/><path d="M27.39,13.42a8.45,8.45,0,0,0-16.78,0,8.45,8.45,0,0,0,3.84,16h9.1a8.45,8.45,0,0,0,3.84-16Z"/><polygon points="21.6 32 19 29.4 16.4 32 21.6 32"/><path class="cls-1" d="M24.94,15.13a5.07,5.07,0,0,0,0-.68,6,6,0,0,0-12,0,5.38,5.38,0,0,0,0,.68,6,6,0,0,0,1.39,11.8A5.33,5.33,0,0,0,19,24.38a5.32,5.32,0,0,0,4.55,2.55,6,6,0,0,0,1.39-11.8Zm-1.39,10.5A4.68,4.68,0,0,1,19,22a4.68,4.68,0,0,1-4.55,3.59h0A4.69,4.69,0,0,1,9.77,21a4.75,4.75,0,0,1,1.81-3.69l.05,0,.26-.18L12,17l.23-.14.21-.1.17-.08A3.12,3.12,0,0,1,13,16.5l.13,0a4.79,4.79,0,0,1,1.32-.19h.24A4.35,4.35,0,0,1,14.36,15v0c0-.05,0-.1,0-.16s0-.21,0-.31v-.12c0-.11,0-.22,0-.32s0-.25.05-.37h0a4.67,4.67,0,0,1,9.22,0h0c0,.12,0,.25.05.37s0,.21,0,.32v.12c0,.11,0,.21,0,.32s0,.1,0,.16v0a4.42,4.42,0,0,1-.33,1.26h.24a4.55,4.55,0,0,1,1.28.18h0A4.63,4.63,0,0,1,26,17h0a4.67,4.67,0,0,1-2.47,8.64Z"/></g><g id="Layer_2" data-name="Layer 2"><g id="A"><g class="cls-3"><path d="M19.5,38.41a8.07,8.07,0,0,1,3.17.62A5.86,5.86,0,0,1,25,40.82,4.78,4.78,0,0,1,26,43.64H22.26a2.94,2.94,0,0,0-1-1.55,2.77,2.77,0,0,0-1.7-.5,2.75,2.75,0,0,0-1.86.64A3.57,3.57,0,0,0,16.68,44a6.11,6.11,0,0,0-.13,2.44,3.61,3.61,0,0,1,1-.72,5.86,5.86,0,0,1,1.28-.44,6.53,6.53,0,0,1,1.4-.15,7,7,0,0,1,3.14.66,5.06,5.06,0,0,1,2.09,1.84,5,5,0,0,1,.75,2.75,5.37,5.37,0,0,1-.88,3,6,6,0,0,1-2.42,2.12,7.79,7.79,0,0,1-3.55.78,7.12,7.12,0,0,1-4-1.07,6.9,6.9,0,0,1-2.54-3,10.66,10.66,0,0,1-.88-4.5,12.27,12.27,0,0,1,.91-5,7.17,7.17,0,0,1,2.6-3.2A7.08,7.08,0,0,1,19.5,38.41Zm-.27,9.67a2.87,2.87,0,0,0-1.24.28,3.33,3.33,0,0,0-1,.69,1.12,1.12,0,0,0-.4.78,4.54,4.54,0,0,0,.33,1.83,2.53,2.53,0,0,0,.93,1.14,2.48,2.48,0,0,0,1.38.39,2.7,2.7,0,0,0,1.34-.34,2.65,2.65,0,0,0,1-1,2.54,2.54,0,0,0,.37-1.37,2.31,2.31,0,0,0-.38-1.39,2.22,2.22,0,0,0-1-.8A3.34,3.34,0,0,0,19.23,48.08Z"/></g></g></g></svg>