<svg xmlns="http://www.w3.org/2000/svg" viewBox="0 0 67 105"><defs><style>.cls-1{fill:#fff;}.cls-2{fill:#00cf75;}.cls-3{fill:none;}.cls-4{isolation:isolate;}</style></defs><title>6C</title><g id="Layer_1" data-name="Layer 1"><rect class="cls-1" width="67" height="105" rx="6"/><polygon class="cls-2" points="13 25 16 22 19 25 13 25"/><rect class="cls-3" x="6" y="5" width="20" height="20"/><path class="cls-2" d="M21,12.34a4.48,4.48,0,0,0-.64.07,5,5,0,1,0-8.72,0,4.48,4.48,0,0,0-.64-.07,5,5,0,0,0,0,10h.19a5.18,5.18,0,0,0,3.68-1.52L16,19.69l1.13,1.13a5.18,5.18,0,0,0,3.68,1.52H21a5,5,0,0,0,0-10Z"/></g><g id="Layer_2" data-name="Layer 2"><g id="A"><g class="cls-4"><path class="cls-2" d="M16.5,29.41a8.07,8.07,0,0,1,3.17.62A5.86,5.86,0,0,1,22,31.82,4.78,4.78,0,0,1,23,34.64H19.26a2.94,2.94,0,0,0-1-1.55,2.77,2.77,0,0,0-1.7-.5,2.75,2.75,0,0,0-1.86.64A3.57,3.57,0,0,0,13.68,35a6.11,6.11,0,0,0-.13,2.44,3.61,3.61,0,0,1,1-.72,5.86,5.86,0,0,1,1.28-.44,6.53,6.53,0,0,1,1.4-.15,7,7,0,0,1,3.14.66,5.06,5.06,0,0,1,2.09,1.84,5,5,0,0,1,.75,2.75,5.37,5.37,0,0,1-.88,3,6,6,0,0,1-2.42,2.12,7.79,7.79,0,0,1-3.55.78,7.12,7.12,0,0,1-4-1.07,6.9,6.9,0,0,1-2.54-3A10.66,10.66,0,0,1,9,38.68a12.27,12.27,0,0,1,.91-5,7.17,7.17,0,0,1,2.6-3.2A7.08,7.08,0,0,1,16.5,29.41Zm-.27,9.67a2.87,2.87,0,0,0-1.24.28,3.33,3.33,0,0,0-1,.69,1.12,1.12,0,0,0-.4.78,4.54,4.54,0,0,0,.33,1.83,2.53,2.53,0,0,0,.93,1.14,2.48,2.48,0,0,0,1.38.39,2.7,2.7,0,0,0,1.34-.34,2.65,2.65,0,0,0,1-1,2.54,2.54,0,0,0,.37-1.37,2.31,2.31,0,0,0-.38-1.39,2.22,2.22,0,0,0-1-.8A3.34,3.34,0,0,0,16.23,39.08Z"/></g></g></g></svg>