<svg xmlns="http://www.w3.org/2000/svg" viewBox="0 0 67 105"><defs><style>.cls-1{fill:#fff;}.cls-2{fill:#2f06fc;}.cls-3{isolation:isolate;}</style></defs><title>7D</title><g id="Layer_1" data-name="Layer 1"><rect class="cls-1" width="67" height="105" rx="6"/><rect class="cls-2" x="8.93" y="7.93" width="14.14" height="14.14" transform="translate(-5.92 15.71) rotate(-45)"/></g><g id="Layer_2" data-name="Layer 2"><g id="A"><g class="cls-3"><path class="cls-2" d="M9.45,29.65H22.77V33a17.76,17.76,0,0,0-1.59,2.23A31.44,31.44,0,0,0,19.64,38c-.5,1-.94,2.06-1.34,3.12a25.15,25.15,0,0,0-.93,3.1A13.07,13.07,0,0,0,17,47H12.62A16.59,16.59,0,0,1,13,44.45,26.36,26.36,0,0,1,14,41a31.08,31.08,0,0,1,1.81-4A28.21,28.21,0,0,1,18.56,33H9.45Z"/></g></g></g></svg>