<svg xmlns="http://www.w3.org/2000/svg" viewBox="0 0 67 105"><defs><style>.cls-1{fill:#fff;}.cls-2{fill:none;opacity:0.15;}.cls-3{fill:#f50;}.cls-4{isolation:isolate;}</style></defs><g id="Layer_1" data-name="Layer 1"><rect class="cls-1" width="67" height="105" rx="6"/><rect class="cls-2" x="6" y="6" width="26" height="26"/><path class="cls-3" d="M19,32,8.16,21.16a7.35,7.35,0,0,1,10.4-10.4l.44.44.44-.44a7.35,7.35,0,0,1,10.4,10.4Z"/><path class="cls-3" d="M24.64,11.21a4.69,4.69,0,0,0-3.36,1.39l-.44.44L19,14.88,17.16,13l-.44-.44a4.76,4.76,0,0,0-6.72,0,4.76,4.76,0,0,0,0,6.72l9,9,9-9a4.76,4.76,0,0,0,0-6.72A4.71,4.71,0,0,0,24.64,11.21Z"/><path class="cls-1" d="M24.64,12.51a3.46,3.46,0,0,1,2.44,5.9L19,26.48l-8.08-8.07a3.46,3.46,0,0,1,4.89-4.89l.43.44,1.84,1.84.92.92.92-.92L21.76,14l.44-.44a3.42,3.42,0,0,1,2.44-1m0-1.3a4.69,4.69,0,0,0-3.36,1.39l-.44.44L19,14.88,17.16,13l-.44-.44a4.76,4.76,0,0,0-6.72,0,4.76,4.76,0,0,0,0,6.72l9,9,9-9a4.76,4.76,0,0,0,0-6.72,4.71,4.71,0,0,0-3.36-1.39Z"/></g><g id="Layer_2" data-name="Layer 2"><g id="A" class="cls-4"><g class="cls-4"><path class="cls-3" d="M12.45,38.65H25.77V42a17.76,17.76,0,0,0-1.59,2.23A31.44,31.44,0,0,0,22.64,47c-.5,1-.94,2.06-1.34,3.12a25.15,25.15,0,0,0-.93,3.1A13.07,13.07,0,0,0,20,56H15.62A16.59,16.59,0,0,1,16,53.45,26.36,26.36,0,0,1,17,50a31.08,31.08,0,0,1,1.81-4A28.21,28.21,0,0,1,21.56,42H12.45Z"/></g></g></g></svg>