<svg xmlns="http://www.w3.org/2000/svg" viewBox="0 0 67 105"><defs><style>.cls-1{fill:#fff;}.cls-2{fill:none;}.cls-3{isolation:isolate;}</style></defs><title>7S</title><g id="Layer_1" data-name="Layer 1"><rect class="cls-1" width="67" height="105" rx="6"/><polygon points="12.79 24.92 15.79 21.92 18.79 24.92 12.79 24.92"/><path d="M20.6,22.26a5.14,5.14,0,0,1-3.67-1.52l-1.14-1.13-1.13,1.13A5.19,5.19,0,0,1,7.31,13.4l8.48-8.48,8.48,8.48a5.19,5.19,0,0,1-3.67,8.86Z"/><rect class="cls-2" x="5.79" y="4.92" width="20" height="20"/></g><g id="Layer_2" data-name="Layer 2"><g id="A"><g class="cls-3"><path d="M9.45,29.65H22.77V33a17.76,17.76,0,0,0-1.59,2.23A31.44,31.44,0,0,0,19.64,38c-.5,1-.94,2.06-1.34,3.12a25.15,25.15,0,0,0-.93,3.1A13.07,13.07,0,0,0,17,47H12.62A16.59,16.59,0,0,1,13,44.45,26.36,26.36,0,0,1,14,41a31.08,31.08,0,0,1,1.81-4A28.21,28.21,0,0,1,18.56,33H9.45Z"/></g></g></g></svg>