<svg xmlns="http://www.w3.org/2000/svg" viewBox="0 0 67 105"><defs><style>.cls-1{fill:#fff;}.cls-2{fill:#f50;}.cls-3{isolation:isolate;}</style></defs><g id="Layer_3" data-name="Layer 3"><rect class="cls-1" width="67" height="105" rx="6"/></g><g id="Layer_1" data-name="Layer 1"><path class="cls-2" d="M19,30,6,43,19,56,32,43,19,30Z"/></g><g id="Layer_2" data-name="Layer 2"><g id="A"><g class="cls-3"><path class="cls-2" d="M19.1,6.41A8.94,8.94,0,0,1,22.39,7a5.2,5.2,0,0,1,2.29,1.67,4.34,4.34,0,0,1,.84,2.7,3.51,3.51,0,0,1-.72,2.23A4.88,4.88,0,0,1,23.06,15a3.62,3.62,0,0,1,1.51.77,4.91,4.91,0,0,1,1.22,1.48,3.76,3.76,0,0,1,.49,1.87,4.28,4.28,0,0,1-.9,2.72,5.64,5.64,0,0,1-2.51,1.78,10.6,10.6,0,0,1-3.77.62,10.45,10.45,0,0,1-3.75-.62,5.7,5.7,0,0,1-2.51-1.78,4.28,4.28,0,0,1-.9-2.72,3.86,3.86,0,0,1,.48-1.87,4.91,4.91,0,0,1,1.22-1.48,3.71,3.71,0,0,1,1.5-.77,5.12,5.12,0,0,1-1.73-1.43,3.51,3.51,0,0,1-.73-2.23,4.34,4.34,0,0,1,.84-2.7A5.23,5.23,0,0,1,15.82,7,9,9,0,0,1,19.1,6.41Zm0,14.81a3.28,3.28,0,0,0,2.1-.61A2,2,0,0,0,22,19a2.08,2.08,0,0,0-.35-1.19,2.23,2.23,0,0,0-1-.81,3.7,3.7,0,0,0-1.53-.28,3.67,3.67,0,0,0-1.51.28,2.32,2.32,0,0,0-1,.81A2.08,2.08,0,0,0,16.27,19,1.94,1.94,0,0,0,17,20.61,3.23,3.23,0,0,0,19.1,21.22Zm0-7.74a2.5,2.5,0,0,0,1.69-.59,2,2,0,0,0,.68-1.6,2,2,0,0,0-.68-1.61,2.67,2.67,0,0,0-3.37,0,2,2,0,0,0-.68,1.61,2,2,0,0,0,.68,1.6A2.51,2.51,0,0,0,19.1,13.48Z"/></g></g></g></svg>