<svg xmlns="http://www.w3.org/2000/svg" viewBox="0 0 67 105"><defs><style>.cls-1{fill:#fff;}.cls-2{fill:none;}.cls-3{isolation:isolate;}</style></defs><title>8S</title><g id="Layer_1" data-name="Layer 1"><rect class="cls-1" width="67" height="105" rx="6"/><polygon points="12.79 24.92 15.79 21.92 18.79 24.92 12.79 24.92"/><path d="M20.6,22.26a5.14,5.14,0,0,1-3.67-1.52l-1.14-1.13-1.13,1.13A5.19,5.19,0,0,1,7.31,13.4l8.48-8.48,8.48,8.48a5.19,5.19,0,0,1-3.67,8.86Z"/><rect class="cls-2" x="5.79" y="4.92" width="20" height="20"/></g><g id="Layer_2" data-name="Layer 2"><g id="A"><g class="cls-3"><path d="M16.1,29.41a8.94,8.94,0,0,1,3.29.57,5.2,5.2,0,0,1,2.29,1.67,4.34,4.34,0,0,1,.84,2.7,3.51,3.51,0,0,1-.72,2.23A4.88,4.88,0,0,1,20.06,38a3.62,3.62,0,0,1,1.51.77,4.91,4.91,0,0,1,1.22,1.48,3.76,3.76,0,0,1,.49,1.87,4.28,4.28,0,0,1-.9,2.72,5.64,5.64,0,0,1-2.51,1.78,10.6,10.6,0,0,1-3.77.62,10.45,10.45,0,0,1-3.75-.62,5.7,5.7,0,0,1-2.51-1.78,4.28,4.28,0,0,1-.9-2.72,3.86,3.86,0,0,1,.48-1.87,4.91,4.91,0,0,1,1.22-1.48,3.71,3.71,0,0,1,1.5-.77,5.12,5.12,0,0,1-1.73-1.43,3.51,3.51,0,0,1-.73-2.23,4.34,4.34,0,0,1,.84-2.7A5.23,5.23,0,0,1,12.82,30,9,9,0,0,1,16.1,29.41Zm0,14.81a3.28,3.28,0,0,0,2.1-.61A2,2,0,0,0,19,42a2.08,2.08,0,0,0-.35-1.19,2.23,2.23,0,0,0-1-.81,3.7,3.7,0,0,0-1.53-.28,3.67,3.67,0,0,0-1.51.28,2.32,2.32,0,0,0-1,.81A2.08,2.08,0,0,0,13.27,42,1.94,1.94,0,0,0,14,43.61,3.23,3.23,0,0,0,16.1,44.22Zm0-7.74a2.5,2.5,0,0,0,1.69-.59,2,2,0,0,0,.68-1.6,2,2,0,0,0-.68-1.61,2.67,2.67,0,0,0-3.37,0,2,2,0,0,0-.68,1.61,2,2,0,0,0,.68,1.6A2.51,2.51,0,0,0,16.1,36.48Z"/></g></g></g></svg>