<svg xmlns="http://www.w3.org/2000/svg" viewBox="0 0 67 105"><defs><style>.cls-1{fill:#fff;}.cls-2{fill:#00cf75;}.cls-3{fill:none;}.cls-4{isolation:isolate;}</style></defs><title>9C</title><g id="Layer_1" data-name="Layer 1"><rect class="cls-1" width="67" height="105" rx="6"/><polygon class="cls-2" points="13 25 16 22 19 25 13 25"/><rect class="cls-3" x="6" y="5" width="20" height="20"/><path class="cls-2" d="M21,12.34a4.48,4.48,0,0,0-.64.07,5,5,0,1,0-8.72,0,4.48,4.48,0,0,0-.64-.07,5,5,0,0,0,0,10h.19a5.18,5.18,0,0,0,3.68-1.52L16,19.69l1.13,1.13a5.18,5.18,0,0,0,3.68,1.52H21a5,5,0,0,0,0-10Z"/></g><g id="Layer_2" data-name="Layer 2"><g id="A"><g class="cls-4"><path class="cls-2" d="M15.65,47.26a7.67,7.67,0,0,1-3.18-.66,6.12,6.12,0,0,1-2.39-1.84,4.62,4.62,0,0,1-1-2.78H13a2.67,2.67,0,0,0,.84,1.52,2.41,2.41,0,0,0,1.67.58,3.93,3.93,0,0,0,2-.49A3.1,3.1,0,0,0,18.77,42a6.65,6.65,0,0,0,.31-2.94,3.55,3.55,0,0,1-.93.88,4.55,4.55,0,0,1-1.3.58,6,6,0,0,1-1.65.2A7.21,7.21,0,0,1,12,40.05a5.29,5.29,0,0,1-2.18-1.89,5.18,5.18,0,0,1-.79-2.88,5.44,5.44,0,0,1,.85-3,5.88,5.88,0,0,1,2.37-2.09,7.82,7.82,0,0,1,3.54-.76,7.22,7.22,0,0,1,4,1.05,6.85,6.85,0,0,1,2.54,3,10.66,10.66,0,0,1,.88,4.5,12.88,12.88,0,0,1-.92,5.26,6.58,6.58,0,0,1-2.61,3.07A7.68,7.68,0,0,1,15.65,47.26Zm.3-9.73a2.89,2.89,0,0,0,1.25-.28,3.8,3.8,0,0,0,1-.68,1.14,1.14,0,0,0,.4-.78,4.6,4.6,0,0,0-.33-1.85,2.53,2.53,0,0,0-4.52-.24,2.82,2.82,0,0,0-.33,1.38,2.25,2.25,0,0,0,.73,1.82A2.68,2.68,0,0,0,16,37.53Z"/></g></g></g></svg>