<svg xmlns="http://www.w3.org/2000/svg" viewBox="0 0 67 105"><defs><style>.cls-1{fill:#fff;}.cls-2{fill:none;opacity:0.15;}.cls-3{isolation:isolate;}</style></defs><title>9S</title><g id="Layer_1" data-name="Layer 1"><rect class="cls-1" width="67" height="105" rx="6"/><rect class="cls-2" x="6" y="6" width="26" height="26"/><path d="M29.84,16.84,19,6,8.16,16.84a7.36,7.36,0,0,0,0,10.4,7.48,7.48,0,0,0,2.25,1.53,7.4,7.4,0,0,0,2.95.62H24.64a6.35,6.35,0,0,0,1.07-.08,7.35,7.35,0,0,0,4.13-12.47Z"/><path d="M13.36,26.79H24.64A4.71,4.71,0,0,0,28,25.4a4.76,4.76,0,0,0,0-6.72l-9-9-9,9a4.76,4.76,0,0,0,0,6.72A4.71,4.71,0,0,0,13.36,26.79Z"/><path class="cls-1" d="M19,11.52l8.08,8.07a3.46,3.46,0,0,1-2.44,5.9H13.36a3.46,3.46,0,0,1-2.44-5.9L19,11.52m0-1.84-9,9a4.76,4.76,0,0,0,0,6.72,4.71,4.71,0,0,0,3.36,1.39H24.64A4.71,4.71,0,0,0,28,25.4a4.76,4.76,0,0,0,0-6.72l-9-9Z"/><polygon points="16.41 32 19.01 29.4 21.61 32 16.41 32"/></g><g id="Layer_2" data-name="Layer 2"><g id="A"><g class="cls-3"><path d="M18.65,56.26a7.67,7.67,0,0,1-3.18-.66,6.12,6.12,0,0,1-2.39-1.84,4.62,4.62,0,0,1-1-2.78H16a2.67,2.67,0,0,0,.84,1.52,2.41,2.41,0,0,0,1.67.58,3.93,3.93,0,0,0,2-.49A3.1,3.1,0,0,0,21.77,51a6.65,6.65,0,0,0,.31-2.94,3.55,3.55,0,0,1-.93.88,4.55,4.55,0,0,1-1.3.58,6,6,0,0,1-1.65.2A7.21,7.21,0,0,1,15,49.05a5.29,5.29,0,0,1-2.18-1.89,5.18,5.18,0,0,1-.79-2.88,5.44,5.44,0,0,1,.85-3,5.88,5.88,0,0,1,2.37-2.09,7.82,7.82,0,0,1,3.54-.76,7.22,7.22,0,0,1,4,1.05,6.85,6.85,0,0,1,2.54,3,10.66,10.66,0,0,1,.88,4.5,12.88,12.88,0,0,1-.92,5.26,6.58,6.58,0,0,1-2.61,3.07A7.68,7.68,0,0,1,18.65,56.26Zm.3-9.73a2.89,2.89,0,0,0,1.25-.28,3.8,3.8,0,0,0,1-.68,1.14,1.14,0,0,0,.4-.78,4.6,4.6,0,0,0-.33-1.85,2.53,2.53,0,0,0-4.52-.24,2.82,2.82,0,0,0-.33,1.38,2.25,2.25,0,0,0,.73,1.82A2.68,2.68,0,0,0,19,46.53Z"/></g></g></g></svg>