<svg xmlns="http://www.w3.org/2000/svg" viewBox="0 0 67 105"><defs><style>.cls-1{fill:#fff;}.cls-2{isolation:isolate;}</style></defs><g id="Layer_3" data-name="Layer 3"><rect class="cls-1" width="67" height="105" rx="6"/></g><g id="Layer_1" data-name="Layer 1"><polygon points="13.8 56 19 50.8 24.2 56 13.8 56"/><circle cx="19" cy="36" r="6"/><circle cx="26" cy="47" r="6"/><circle cx="12" cy="47" r="6"/></g><g id="Layer_2" data-name="Layer 2"><g id="A"><g class="cls-2"><path d="M22.58,18.84a9.81,9.81,0,0,1-.39,3,3.06,3.06,0,0,1-1.42,1.8,5.92,5.92,0,0,1-3,.61,14.78,14.78,0,0,1-1.69-.1c-.6-.07-1.06-.14-1.37-.21l0-3.71.77.14a5.26,5.26,0,0,0,.89.08,1.85,1.85,0,0,0,1.65-.64,3.78,3.78,0,0,0,.41-2V6.65h4.1Z"/></g></g></g></svg>