<svg xmlns="http://www.w3.org/2000/svg" viewBox="0 0 67 105"><defs><style>.cls-1{fill:#fff;}.cls-2{fill:#00cf75;}.cls-3{fill:none;}.cls-4{isolation:isolate;}</style></defs><title>JC</title><g id="Layer_1" data-name="Layer 1"><rect class="cls-1" width="67" height="105" rx="6"/><polygon class="cls-2" points="13 25 16 22 19 25 13 25"/><rect class="cls-3" x="6" y="5" width="20" height="20"/><path class="cls-2" d="M21,12.34a4.48,4.48,0,0,0-.64.07,5,5,0,1,0-8.72,0,4.48,4.48,0,0,0-.64-.07,5,5,0,0,0,0,10h.19a5.18,5.18,0,0,0,3.68-1.52L16,19.69l1.13,1.13a5.18,5.18,0,0,0,3.68,1.52H21a5,5,0,0,0,0-10Z"/></g><g id="Layer_2" data-name="Layer 2"><g id="A"><g class="cls-4"><path class="cls-2" d="M19.58,41.84a9.81,9.81,0,0,1-.39,3,3.06,3.06,0,0,1-1.42,1.8,5.92,5.92,0,0,1-3,.61,14.78,14.78,0,0,1-1.69-.1c-.6-.07-1.06-.14-1.37-.21l0-3.71.77.14a5.26,5.26,0,0,0,.89.08,1.85,1.85,0,0,0,1.65-.64,3.78,3.78,0,0,0,.41-2V29.65h4.1Z"/></g></g></g></svg>