<svg xmlns="http://www.w3.org/2000/svg" viewBox="0 0 67 105"><defs><style>.cls-1{fill:#fff;}.cls-2{fill:none;opacity:0.15;}.cls-3{fill:#f50;}.cls-4{isolation:isolate;}</style></defs><g id="Layer_1" data-name="Layer 1"><rect class="cls-1" width="67" height="105" rx="6"/><rect class="cls-2" x="6" y="6" width="26" height="26"/><rect class="cls-1" x="9.81" y="9.81" width="18.38" height="18.38" transform="translate(-7.87 19) rotate(-45)"/><path class="cls-3" d="M19,9.68,28.32,19,19,28.32,9.68,19,19,9.68M19,6,6,19,19,32,32,19,19,6Z"/><rect class="cls-3" x="12.41" y="12.41" width="13.18" height="13.18" transform="translate(-7.87 19) rotate(-45)"/><path class="cls-1" d="M19,11.52,26.48,19,19,26.48,11.52,19,19,11.52m0-1.84L9.68,19,19,28.32,28.32,19,19,9.68Z"/></g><g id="Layer_2" data-name="Layer 2"><g id="A"><g class="cls-4"><path class="cls-3" d="M22.58,50.84a9.81,9.81,0,0,1-.39,3,3.06,3.06,0,0,1-1.42,1.8,5.92,5.92,0,0,1-3,.61,14.78,14.78,0,0,1-1.69-.1c-.6-.07-1.06-.14-1.37-.21l0-3.71.77.14a5.26,5.26,0,0,0,.89.08,1.85,1.85,0,0,0,1.65-.64,3.78,3.78,0,0,0,.41-2V38.65h4.1Z"/></g></g></g></svg>