<svg xmlns="http://www.w3.org/2000/svg" viewBox="0 0 67 105"><defs><style>.cls-1{fill:#fff;}.cls-2{isolation:isolate;}</style></defs><g id="Layer_3" data-name="Layer 3"><rect class="cls-1" width="67" height="105" rx="6"/></g><g id="Layer_1" data-name="Layer 1"><path d="M28.73,39.73,19,30,9.27,39.73A6.61,6.61,0,0,0,13.94,51H24.06a6.33,6.33,0,0,0,1-.07,6.61,6.61,0,0,0,3.7-11.2Z"/><polygon points="13.81 56 19.01 50.8 24.21 56 13.81 56"/></g><g id="Layer_2" data-name="Layer 2"><g id="A"><g class="cls-2"><path d="M22.58,18.84a9.81,9.81,0,0,1-.39,3,3.06,3.06,0,0,1-1.42,1.8,5.92,5.92,0,0,1-3,.61,14.78,14.78,0,0,1-1.69-.1c-.6-.07-1.06-.14-1.37-.21l0-3.71.77.14a5.26,5.26,0,0,0,.89.08,1.85,1.85,0,0,0,1.65-.64,3.78,3.78,0,0,0,.41-2V6.65h4.1Z"/></g></g></g></svg>