<svg xmlns="http://www.w3.org/2000/svg" viewBox="0 0 67 105"><defs><style>.cls-1{fill:#fff;}.cls-2{fill:none;}.cls-3{isolation:isolate;}</style></defs><title>JS</title><g id="Layer_1" data-name="Layer 1"><rect class="cls-1" width="67" height="105" rx="6"/><polygon points="12.79 24.92 15.79 21.92 18.79 24.92 12.79 24.92"/><path d="M20.6,22.26a5.14,5.14,0,0,1-3.67-1.52l-1.14-1.13-1.13,1.13A5.19,5.19,0,0,1,7.31,13.4l8.48-8.48,8.48,8.48a5.19,5.19,0,0,1-3.67,8.86Z"/><rect class="cls-2" x="5.79" y="4.92" width="20" height="20"/></g><g id="Layer_2" data-name="Layer 2"><g id="A"><g class="cls-3"><path d="M19.58,41.84a9.81,9.81,0,0,1-.39,3,3.06,3.06,0,0,1-1.42,1.8,5.92,5.92,0,0,1-3,.61,14.78,14.78,0,0,1-1.69-.1c-.6-.07-1.06-.14-1.37-.21l0-3.71.77.14a5.26,5.26,0,0,0,.89.08,1.85,1.85,0,0,0,1.65-.64,3.78,3.78,0,0,0,.41-2V29.65h4.1Z"/></g></g></g></svg>