<svg id="Layer_1" data-name="Layer 1" xmlns="http://www.w3.org/2000/svg" viewBox="0 0 67 105"><defs><style>.cls-1{fill:#153b5d;}.cls-2{fill:#131313;}</style></defs><path class="cls-1" d="M5.83,0H61.17A6,6,0,0,1,67,6.12V98.88A6,6,0,0,1,61.17,105H5.83A6,6,0,0,1,0,98.88V6.12A6,6,0,0,1,5.83,0Z"/><path class="cls-2" d="M53.56,101A10.54,10.54,0,0,0,63,91.56h0V89.44h0a10.54,10.54,0,0,0-6-8.44,10.54,10.54,0,0,0,6-8.44h0V70.44h0a10.54,10.54,0,0,0-6-8.44,10.54,10.54,0,0,0,6-8.44h0V51.44h0a10.54,10.54,0,0,0-6-8.44,10.54,10.54,0,0,0,6-8.44h0V32.44h0a10.54,10.54,0,0,0-6-8.44,10.54,10.54,0,0,0,6-8.44h0V13.44h0a10.54,10.54,0,0,0-9.39-9.39V4H51.44v0a10.54,10.54,0,0,0-8.44,6,10.54,10.54,0,0,0-8.44-6V4H32.44v0a10.54,10.54,0,0,0-8.44,6,10.54,10.54,0,0,0-8.44-6V4H13.44v0a10.54,10.54,0,0,0-9.39,9.39H4v2.12h0a10.54,10.54,0,0,0,6,8.44,10.54,10.54,0,0,0-6,8.44H4v2.12h0a10.54,10.54,0,0,0,6,8.44,10.54,10.54,0,0,0-6,8.44H4v2.12h0a10.54,10.54,0,0,0,6,8.44,10.54,10.54,0,0,0-6,8.44H4v2.12h0a10.54,10.54,0,0,0,6,8.44,10.54,10.54,0,0,0-6,8.44H4v2.12h0A10.54,10.54,0,0,0,13.44,101v0h2.12v0a10.54,10.54,0,0,0,8.44-6,10.54,10.54,0,0,0,8.44,6v0h2.12v0a10.54,10.54,0,0,0,8.44-6,10.54,10.54,0,0,0,8.44,6v0h2.12Zm0-2a8.49,8.49,0,0,1,7.34-7.34A8.49,8.49,0,0,1,53.58,98.92Zm7.34-9.5a8.49,8.49,0,0,1-7.34-7.34A8.49,8.49,0,0,1,60.92,89.42ZM47.44,52.5a10.54,10.54,0,0,0,5.06-5.06,10.54,10.54,0,0,0,5.06,5.06,10.54,10.54,0,0,0-5.06,5.06A10.54,10.54,0,0,0,47.44,52.5Zm4,8.42a8.49,8.49,0,0,1-7.34-7.34A8.49,8.49,0,0,1,51.42,60.92Zm-7.34-9.5a8.49,8.49,0,0,1,7.34-7.34A8.49,8.49,0,0,1,44.08,51.42ZM47.44,33.5a10.54,10.54,0,0,0,5.06-5.06,10.54,10.54,0,0,0,5.06,5.06,10.54,10.54,0,0,0-5.06,5.06A10.54,10.54,0,0,0,47.44,33.5Zm-3.36-1.08a8.49,8.49,0,0,1,7.34-7.34A8.49,8.49,0,0,1,44.08,32.42Zm7.34,9.5a8.49,8.49,0,0,1-7.34-7.34A8.49,8.49,0,0,1,51.42,41.92ZM48.06,43A10.54,10.54,0,0,0,43,48.06,10.54,10.54,0,0,0,37.94,43,10.54,10.54,0,0,0,43,37.94,10.54,10.54,0,0,0,48.06,43ZM28.44,52.5a10.54,10.54,0,0,0,5.06-5.06,10.54,10.54,0,0,0,5.06,5.06,10.54,10.54,0,0,0-5.06,5.06A10.54,10.54,0,0,0,28.44,52.5Zm4,8.42a8.49,8.49,0,0,1-7.34-7.34A8.49,8.49,0,0,1,32.42,60.92Zm-7.34-9.5a8.49,8.49,0,0,1,7.34-7.34A8.49,8.49,0,0,1,25.08,51.42Zm16.84,2.16a8.49,8.49,0,0,1-7.34,7.34A8.49,8.49,0,0,1,41.92,53.58Zm-7.34-9.5a8.49,8.49,0,0,1,7.34,7.34A8.49,8.49,0,0,1,34.58,44.08Zm0-2.16a8.49,8.49,0,0,1,7.34-7.34A8.49,8.49,0,0,1,34.58,41.92Zm0-16.84a8.49,8.49,0,0,1,7.34,7.34A8.49,8.49,0,0,1,34.58,25.08Zm4,8.42a10.54,10.54,0,0,0-5.06,5.06,10.54,10.54,0,0,0-5.06-5.06,10.54,10.54,0,0,0,5.06-5.06A10.54,10.54,0,0,0,38.56,33.5ZM25.08,32.42a8.49,8.49,0,0,1,7.34-7.34A8.49,8.49,0,0,1,25.08,32.42Zm7.34,9.5a8.49,8.49,0,0,1-7.34-7.34A8.49,8.49,0,0,1,32.42,41.92ZM29.06,43A10.54,10.54,0,0,0,24,48.06,10.54,10.54,0,0,0,18.94,43,10.54,10.54,0,0,0,24,37.94,10.54,10.54,0,0,0,29.06,43Zm-6.14,8.42a8.49,8.49,0,0,1-7.34-7.34A8.49,8.49,0,0,1,22.92,51.42Zm-7.34-9.5a8.49,8.49,0,0,1,7.34-7.34A8.49,8.49,0,0,1,15.58,41.92Zm0-16.84a8.49,8.49,0,0,1,7.34,7.34A8.49,8.49,0,0,1,15.58,25.08Zm4,8.42a10.54,10.54,0,0,0-5.06,5.06A10.54,10.54,0,0,0,9.44,33.5a10.54,10.54,0,0,0,5.06-5.06A10.54,10.54,0,0,0,19.56,33.5Zm0,19a10.54,10.54,0,0,0-5.06,5.06A10.54,10.54,0,0,0,9.44,52.5a10.54,10.54,0,0,0,5.06-5.06A10.54,10.54,0,0,0,19.56,52.5Zm3.36,1.08a8.49,8.49,0,0,1-7.34,7.34A8.49,8.49,0,0,1,22.92,53.58ZM19.56,71.5a10.54,10.54,0,0,0-5.06,5.06A10.54,10.54,0,0,0,9.44,71.5a10.54,10.54,0,0,0,5.06-5.06A10.54,10.54,0,0,0,19.56,71.5Zm3.36,1.08a8.49,8.49,0,0,1-7.34,7.34A8.49,8.49,0,0,1,22.92,72.58Zm-7.34-9.5a8.49,8.49,0,0,1,7.34,7.34A8.49,8.49,0,0,1,15.58,63.08ZM18.94,62A10.54,10.54,0,0,0,24,56.94,10.54,10.54,0,0,0,29.06,62,10.54,10.54,0,0,0,24,67.06,10.54,10.54,0,0,0,18.94,62Zm13.48,1.08a8.49,8.49,0,0,1-7.34,7.34A8.49,8.49,0,0,1,32.42,63.08Zm0,16.84a8.49,8.49,0,0,1-7.34-7.34A8.49,8.49,0,0,1,32.42,79.92Zm-4-8.42a10.54,10.54,0,0,0,5.06-5.06,10.54,10.54,0,0,0,5.06,5.06,10.54,10.54,0,0,0-5.06,5.06A10.54,10.54,0,0,0,28.44,71.5Zm13.48,1.08a8.49,8.49,0,0,1-7.34,7.34A8.49,8.49,0,0,1,41.92,72.58Zm-7.34-9.5a8.49,8.49,0,0,1,7.34,7.34A8.49,8.49,0,0,1,34.58,63.08ZM37.94,62A10.54,10.54,0,0,0,43,56.94,10.54,10.54,0,0,0,48.06,62,10.54,10.54,0,0,0,43,67.06,10.54,10.54,0,0,0,37.94,62Zm13.48,1.08a8.49,8.49,0,0,1-7.34,7.34A8.49,8.49,0,0,1,51.42,63.08Zm0,16.84a8.49,8.49,0,0,1-7.34-7.34A8.49,8.49,0,0,1,51.42,79.92Zm-4-8.42a10.54,10.54,0,0,0,5.06-5.06,10.54,10.54,0,0,0,5.06,5.06,10.54,10.54,0,0,0-5.06,5.06A10.54,10.54,0,0,0,47.44,71.5Zm6.14,8.42a8.49,8.49,0,0,1,7.34-7.34A8.49,8.49,0,0,1,53.58,79.92Zm7.34-9.5a8.49,8.49,0,0,1-7.34-7.34A8.49,8.49,0,0,1,60.92,70.42Zm-7.34-9.5a8.49,8.49,0,0,1,7.34-7.34A8.49,8.49,0,0,1,53.58,60.92Zm7.34-9.5a8.49,8.49,0,0,1-7.34-7.34A8.49,8.49,0,0,1,60.92,51.42Zm-7.34-9.5a8.49,8.49,0,0,1,7.34-7.34A8.49,8.49,0,0,1,53.58,41.92Zm7.34-9.5a8.49,8.49,0,0,1-7.34-7.34A8.49,8.49,0,0,1,60.92,32.42Zm-7.34-9.5a8.49,8.49,0,0,1,7.34-7.34A8.49,8.49,0,0,1,53.58,22.92Zm7.34-9.5a8.49,8.49,0,0,1-7.34-7.34A8.49,8.49,0,0,1,60.92,13.42Zm-8.42-4a10.54,10.54,0,0,0,5.06,5.06,10.54,10.54,0,0,0-5.06,5.06,10.54,10.54,0,0,0-5.06-5.06A10.54,10.54,0,0,0,52.5,9.44ZM51.42,6.08a8.49,8.49,0,0,1-7.34,7.34A8.49,8.49,0,0,1,51.42,6.08Zm0,16.84a8.49,8.49,0,0,1-7.34-7.34A8.49,8.49,0,0,1,51.42,22.92ZM48.06,24A10.54,10.54,0,0,0,43,29.06,10.54,10.54,0,0,0,37.94,24,10.54,10.54,0,0,0,43,18.94,10.54,10.54,0,0,0,48.06,24ZM34.58,22.92a8.49,8.49,0,0,1,7.34-7.34A8.49,8.49,0,0,1,34.58,22.92Zm7.34-9.5a8.49,8.49,0,0,1-7.34-7.34A8.49,8.49,0,0,1,41.92,13.42Zm-8.42-4a10.54,10.54,0,0,0,5.06,5.06,10.54,10.54,0,0,0-5.06,5.06,10.54,10.54,0,0,0-5.06-5.06A10.54,10.54,0,0,0,33.5,9.44ZM32.42,6.08a8.49,8.49,0,0,1-7.34,7.34A8.49,8.49,0,0,1,32.42,6.08Zm0,16.84a8.49,8.49,0,0,1-7.34-7.34A8.49,8.49,0,0,1,32.42,22.92ZM29.06,24A10.54,10.54,0,0,0,24,29.06,10.54,10.54,0,0,0,18.94,24,10.54,10.54,0,0,0,24,18.94,10.54,10.54,0,0,0,29.06,24ZM15.58,22.92a8.49,8.49,0,0,1,7.34-7.34A8.49,8.49,0,0,1,15.58,22.92Zm7.34-9.5a8.49,8.49,0,0,1-7.34-7.34A8.49,8.49,0,0,1,22.92,13.42Zm-8.42-4a10.54,10.54,0,0,0,5.06,5.06,10.54,10.54,0,0,0-5.06,5.06A10.54,10.54,0,0,0,9.44,14.5,10.54,10.54,0,0,0,14.5,9.44ZM13.42,6.08a8.49,8.49,0,0,1-7.34,7.34A8.49,8.49,0,0,1,13.42,6.08Zm-7.34,9.5a8.49,8.49,0,0,1,7.34,7.34A8.49,8.49,0,0,1,6.08,15.58Zm7.34,9.5a8.49,8.49,0,0,1-7.34,7.34A8.49,8.49,0,0,1,13.42,25.08Zm-7.34,9.5a8.49,8.49,0,0,1,7.34,7.34A8.49,8.49,0,0,1,6.08,34.58Zm7.34,9.5a8.49,8.49,0,0,1-7.34,7.34A8.49,8.49,0,0,1,13.42,44.08Zm-7.34,9.5a8.49,8.49,0,0,1,7.34,7.34A8.49,8.49,0,0,1,6.08,53.58Zm7.34,9.5a8.49,8.49,0,0,1-7.34,7.34A8.49,8.49,0,0,1,13.42,63.08Zm-7.34,9.5a8.49,8.49,0,0,1,7.34,7.34A8.49,8.49,0,0,1,6.08,72.58Zm7.34,9.5a8.49,8.49,0,0,1-7.34,7.34A8.49,8.49,0,0,1,13.42,82.08Zm-7.34,9.5a8.49,8.49,0,0,1,7.34,7.34A8.49,8.49,0,0,1,6.08,91.58Zm8.42,4A10.54,10.54,0,0,0,9.44,90.5a10.54,10.54,0,0,0,5.06-5.06,10.54,10.54,0,0,0,5.06,5.06A10.54,10.54,0,0,0,14.5,95.56Zm1.08,3.36a8.49,8.49,0,0,1,7.34-7.34A8.49,8.49,0,0,1,15.58,98.92Zm0-16.84a8.49,8.49,0,0,1,7.34,7.34A8.49,8.49,0,0,1,15.58,82.08ZM18.94,81A10.54,10.54,0,0,0,24,75.94,10.54,10.54,0,0,0,29.06,81,10.54,10.54,0,0,0,24,86.06,10.54,10.54,0,0,0,18.94,81Zm13.48,1.08a8.49,8.49,0,0,1-7.34,7.34A8.49,8.49,0,0,1,32.42,82.08Zm-7.34,9.5a8.49,8.49,0,0,1,7.34,7.34A8.49,8.49,0,0,1,25.08,91.58Zm8.42,4a10.54,10.54,0,0,0-5.06-5.06,10.54,10.54,0,0,0,5.06-5.06,10.54,10.54,0,0,0,5.06,5.06A10.54,10.54,0,0,0,33.5,95.56Zm1.08,3.36a8.49,8.49,0,0,1,7.34-7.34A8.49,8.49,0,0,1,34.58,98.92Zm0-16.84a8.49,8.49,0,0,1,7.34,7.34A8.49,8.49,0,0,1,34.58,82.08ZM37.94,81A10.54,10.54,0,0,0,43,75.94,10.54,10.54,0,0,0,48.06,81,10.54,10.54,0,0,0,43,86.06,10.54,10.54,0,0,0,37.94,81Zm13.48,1.08a8.49,8.49,0,0,1-7.34,7.34A8.49,8.49,0,0,1,51.42,82.08Zm-7.34,9.5a8.49,8.49,0,0,1,7.34,7.34A8.49,8.49,0,0,1,44.08,91.58Zm3.36-1.08a10.54,10.54,0,0,0,5.06-5.06,10.54,10.54,0,0,0,5.06,5.06,10.54,10.54,0,0,0-5.06,5.06A10.54,10.54,0,0,0,47.44,90.5Z"/></svg>