<svg xmlns="http://www.w3.org/2000/svg" viewBox="0 0 67 105"><defs><style>.cls-1{fill:#fff;}.cls-2{fill:#f50;}.cls-3{fill:none;}.cls-4{isolation:isolate;}</style></defs><title>QH</title><g id="Layer_1" data-name="Layer 1"><rect class="cls-1" width="67" height="105" rx="6"/><path class="cls-2" d="M11.19,7.66a5.18,5.18,0,0,1,3.68,1.52L16,10.31l1.13-1.13a5.19,5.19,0,0,1,7.35,7.34L16,25,7.52,16.52a5.19,5.19,0,0,1,3.67-8.86Z"/><rect class="cls-3" x="6" y="5" width="20" height="20"/></g><g id="Layer_2" data-name="Layer 2"><g id="A" class="cls-4"><g class="cls-4"><path class="cls-2" d="M7.77,38.36a10.41,10.41,0,0,1,1-4.76,7.36,7.36,0,0,1,2.87-3.1A8.32,8.32,0,0,1,16,29.41,8.27,8.27,0,0,1,20.3,30.5a7.4,7.4,0,0,1,2.86,3.1,10.54,10.54,0,0,1,1,4.76,10.71,10.71,0,0,1-.68,4,8.06,8.06,0,0,1-2,3,1.91,1.91,0,0,0,1,1,3.53,3.53,0,0,0,1.67.42V50a13.66,13.66,0,0,1-2.31-.19,5.21,5.21,0,0,1-2-.8,8.07,8.07,0,0,1-1.92-1.89c-.41,0-.76.09-1.05.11s-.59,0-.89,0a8.44,8.44,0,0,1-4.36-1.08,7.24,7.24,0,0,1-2.85-3.07A10.28,10.28,0,0,1,7.77,38.36Zm4.5,0a7,7,0,0,0,1,4.26A3.26,3.26,0,0,0,16,43.93a3.29,3.29,0,0,0,2.74-1.26,7.06,7.06,0,0,0,1-4.27,7.31,7.31,0,0,0-1-4.37A3.27,3.27,0,0,0,16,32.72,3.24,3.24,0,0,0,13.26,34,7.41,7.41,0,0,0,12.27,38.41Z"/></g></g></g></svg>