<svg xmlns="http://www.w3.org/2000/svg" viewBox="0 0 67 105"><defs><style>.cls-1{fill:#fff;}.cls-2{fill:none;opacity:0.15;}.cls-3{isolation:isolate;}</style></defs><g id="Layer_1" data-name="Layer 1"><rect class="cls-1" width="67" height="105" rx="6"/><rect class="cls-2" x="6" y="6" width="26" height="26"/><path d="M29.84,16.84,19,6,8.16,16.84a7.36,7.36,0,0,0,0,10.4,7.48,7.48,0,0,0,2.25,1.53,7.4,7.4,0,0,0,2.95.62H24.64a6.35,6.35,0,0,0,1.07-.08,7.35,7.35,0,0,0,4.13-12.47Z"/><path d="M13.36,26.79H24.64A4.71,4.71,0,0,0,28,25.4a4.76,4.76,0,0,0,0-6.72l-9-9-9,9a4.76,4.76,0,0,0,0,6.72A4.71,4.71,0,0,0,13.36,26.79Z"/><path class="cls-1" d="M19,11.52l8.08,8.07a3.46,3.46,0,0,1-2.44,5.9H13.36a3.46,3.46,0,0,1-2.44-5.9L19,11.52m0-1.84-9,9a4.76,4.76,0,0,0,0,6.72,4.71,4.71,0,0,0,3.36,1.39H24.64A4.71,4.71,0,0,0,28,25.4a4.76,4.76,0,0,0,0-6.72l-9-9Z"/><polygon points="16.41 32 19.01 29.4 21.61 32 16.41 32"/></g><g id="Layer_2" data-name="Layer 2"><g id="A"><g class="cls-3"><path d="M10.77,47.36a10.41,10.41,0,0,1,1-4.76,7.36,7.36,0,0,1,2.87-3.1A8.32,8.32,0,0,1,19,38.41,8.27,8.27,0,0,1,23.3,39.5a7.4,7.4,0,0,1,2.86,3.1,10.54,10.54,0,0,1,1,4.76,10.71,10.71,0,0,1-.68,4,8.06,8.06,0,0,1-2,3,1.91,1.91,0,0,0,1,1,3.53,3.53,0,0,0,1.67.42V59a13.66,13.66,0,0,1-2.31-.19,5.21,5.21,0,0,1-2-.8,8.07,8.07,0,0,1-1.92-1.89c-.41,0-.76.09-1.05.11s-.59,0-.89,0a8.44,8.44,0,0,1-4.36-1.08,7.24,7.24,0,0,1-2.85-3.07A10.28,10.28,0,0,1,10.77,47.36Zm4.5,0a7,7,0,0,0,1,4.26A3.26,3.26,0,0,0,19,52.93a3.29,3.29,0,0,0,2.74-1.26,7.06,7.06,0,0,0,1-4.27,7.31,7.31,0,0,0-1-4.37A3.27,3.27,0,0,0,19,41.72,3.24,3.24,0,0,0,16.26,43,7.41,7.41,0,0,0,15.27,47.41Z"/></g></g></g></svg>