<svg xmlns="http://www.w3.org/2000/svg" viewBox="0 0 67 105"><defs><style>.cls-1{fill:#fff;}.cls-2{fill:none;opacity:0.15;}.cls-3{fill:#f50;}.cls-4{isolation:isolate;}</style></defs><title>2H</title><g id="Layer_1" data-name="Layer 1"><rect class="cls-1" width="67" height="105" rx="6"/><rect class="cls-2" x="6" y="6" width="26" height="26"/><path class="cls-3" d="M19,32,8.16,21.16a7.35,7.35,0,0,1,10.4-10.4l.44.44.44-.44a7.35,7.35,0,0,1,10.4,10.4Z"/><path class="cls-3" d="M24.64,11.21a4.69,4.69,0,0,0-3.36,1.39l-.44.44L19,14.88,17.16,13l-.44-.44a4.76,4.76,0,0,0-6.72,0,4.76,4.76,0,0,0,0,6.72l9,9,9-9a4.76,4.76,0,0,0,0-6.72A4.71,4.71,0,0,0,24.64,11.21Z"/><path class="cls-1" d="M24.64,12.51a3.46,3.46,0,0,1,2.44,5.9L19,26.48l-8.08-8.07a3.46,3.46,0,0,1,4.89-4.89l.43.44,1.84,1.84.92.92.92-.92L21.76,14l.44-.44a3.42,3.42,0,0,1,2.44-1m0-1.3a4.69,4.69,0,0,0-3.36,1.39l-.44.44L19,14.88,17.16,13l-.44-.44a4.76,4.76,0,0,0-6.72,0,4.76,4.76,0,0,0,0,6.72l9,9,9-9a4.76,4.76,0,0,0,0-6.72,4.71,4.71,0,0,0-3.36-1.39Z"/></g><g id="Layer_2" data-name="Layer 2"><g id="A" class="cls-4"><g class="cls-4"><path class="cls-3" d="M12.56,56V53.13a5,5,0,0,1,.49-2.27,5.54,5.54,0,0,1,1.3-1.66A10.08,10.08,0,0,1,16.12,48c.64-.35,1.29-.68,1.93-1s1.24-.6,1.77-.9a5.32,5.32,0,0,0,1.3-1,1.81,1.81,0,0,0,.49-1.27A1.92,1.92,0,0,0,21,42.33a2.46,2.46,0,0,0-1.74-.59,3.16,3.16,0,0,0-2,.67,3.25,3.25,0,0,0-1.1,2.14H12.27a6.4,6.4,0,0,1,.79-3.12,5.54,5.54,0,0,1,2.33-2.21,8.53,8.53,0,0,1,3.94-.81,8.2,8.2,0,0,1,3.51.68A5.22,5.22,0,0,1,25.1,41a5,5,0,0,1,.79,2.8A4.89,4.89,0,0,1,25.42,46a5.2,5.2,0,0,1-1.26,1.6,9.21,9.21,0,0,1-1.72,1.15q-.93.48-1.86.87c-.63.27-1.2.53-1.72.79a4.52,4.52,0,0,0-1.26.89,1.65,1.65,0,0,0-.48,1.19v.08h8.71V56Z"/></g></g></g></svg>