<svg xmlns="http://www.w3.org/2000/svg" viewBox="0 0 67 105"><defs><style>.cls-1{fill:#fff;}.cls-2{fill:#2f06fc;}.cls-3{isolation:isolate;}</style></defs><g id="Layer_3" data-name="Layer 3"><rect class="cls-1" width="67" height="105" rx="6"/></g><g id="Layer_1" data-name="Layer 1"><path class="cls-2" d="M19,30,6,43,19,56,32,43,19,30Z"/></g><g id="Layer_2" data-name="Layer 2"><g id="A"><g class="cls-3"><path class="cls-2" d="M12,12.11a5.32,5.32,0,0,1,.91-3.21A5.35,5.35,0,0,1,15.39,7a9.49,9.49,0,0,1,3.5-.61,12,12,0,0,1,3.58.49A5.39,5.39,0,0,1,25,8.44a4,4,0,0,1,.91,2.71,3.6,3.6,0,0,1-.71,2.23,4.74,4.74,0,0,1-2.39,1.52,6,6,0,0,1,1.68.76A4.27,4.27,0,0,1,25.77,17a3.81,3.81,0,0,1,.51,2,4.31,4.31,0,0,1-.6,2.3A4.82,4.82,0,0,1,24.05,23a7.9,7.9,0,0,1-2.39,1,12,12,0,0,1-2.86.32,9.05,9.05,0,0,1-3.74-.69,5.2,5.2,0,0,1-2.31-2,6.07,6.07,0,0,1-.8-3.12h3.89a2.94,2.94,0,0,0,1.08,2,3.35,3.35,0,0,0,1.91.56,4.58,4.58,0,0,0,1.66-.27A2.5,2.5,0,0,0,21.56,20a1.81,1.81,0,0,0,.36-1.12,1.73,1.73,0,0,0-.35-1.06,2.29,2.29,0,0,0-1-.72,4.37,4.37,0,0,0-1.52-.3l-1.69-.09V13.5l1.5-.1a4.14,4.14,0,0,0,1.45-.31,2.18,2.18,0,0,0,.93-.71,1.74,1.74,0,0,0,.32-1.05,1.38,1.38,0,0,0-.38-1,2.32,2.32,0,0,0-1-.61,4.32,4.32,0,0,0-1.39-.21,3.93,3.93,0,0,0-1.41.24,2.18,2.18,0,0,0-1,.8,3.23,3.23,0,0,0-.48,1.55Z"/></g></g></g></svg>