<svg xmlns="http://www.w3.org/2000/svg" viewBox="0 0 67 105"><defs><style>.cls-1{fill:#fff;}.cls-2{fill:none;opacity:0.15;}.cls-3{fill:#00cf75;}.cls-4{isolation:isolate;}</style></defs><title>5C</title><g id="Layer_1" data-name="Layer 1"><rect class="cls-1" width="67" height="105" rx="6"/><rect class="cls-2" x="6" y="6" width="26" height="26"/><path class="cls-3" d="M27.39,13.42a8.45,8.45,0,0,0-16.78,0,8.45,8.45,0,0,0,3.84,16h9.1a8.45,8.45,0,0,0,3.84-16Z"/><polygon class="cls-3" points="21.6 32 19 29.4 16.4 32 21.6 32"/><path class="cls-1" d="M24.94,15.13a5.07,5.07,0,0,0,0-.68,6,6,0,0,0-12,0,5.38,5.38,0,0,0,0,.68,6,6,0,0,0,1.39,11.8A5.33,5.33,0,0,0,19,24.38a5.32,5.32,0,0,0,4.55,2.55,6,6,0,0,0,1.39-11.8Zm-1.39,10.5A4.68,4.68,0,0,1,19,22a4.68,4.68,0,0,1-4.55,3.59h0A4.69,4.69,0,0,1,9.77,21a4.75,4.75,0,0,1,1.81-3.69l.05,0,.26-.18L12,17l.23-.14.21-.1.17-.08A3.12,3.12,0,0,1,13,16.5l.13,0a4.79,4.79,0,0,1,1.32-.19h.24A4.35,4.35,0,0,1,14.36,15v0c0-.05,0-.1,0-.16s0-.21,0-.31v-.12c0-.11,0-.22,0-.32s0-.25.05-.37h0a4.67,4.67,0,0,1,9.22,0h0c0,.12,0,.25.05.37s0,.21,0,.32v.12c0,.11,0,.21,0,.32s0,.1,0,.16v0a4.42,4.42,0,0,1-.33,1.26h.24a4.55,4.55,0,0,1,1.28.18h0A4.63,4.63,0,0,1,26,17h0a4.67,4.67,0,0,1-2.47,8.64Z"/></g><g id="Layer_2" data-name="Layer 2"><g id="A"><g class="cls-4"><path class="cls-3" d="M13.73,38.65H25.22L25.05,42H16.89l-.3,3.53a14.29,14.29,0,0,1,1.81-.61,7,7,0,0,1,1.78-.21,7.34,7.34,0,0,1,3.21.67,5.16,5.16,0,0,1,2.2,1.93,6.28,6.28,0,0,1-.06,6.24,5.51,5.51,0,0,1-2.41,2,8.77,8.77,0,0,1-3.71.71,10.06,10.06,0,0,1-3.25-.51,8.5,8.5,0,0,1-2.62-1.39,6.46,6.46,0,0,1-1.71-2l3.11-2a11.06,11.06,0,0,0,1,1.34,4.43,4.43,0,0,0,1.28,1A3.78,3.78,0,0,0,19,53a3.46,3.46,0,0,0,2.28-.72,2.27,2.27,0,0,0,.86-1.82,2.3,2.3,0,0,0-.37-1.27,2.8,2.8,0,0,0-1-.93,3.61,3.61,0,0,0-1.64-.34,4.57,4.57,0,0,0-.85.07,5.09,5.09,0,0,0-.84.27,8.62,8.62,0,0,0-1,.54.54.54,0,0,1-.27.08,1,1,0,0,1-.3-.1l-2.86-1.44Z"/></g></g></g></svg>