<svg xmlns="http://www.w3.org/2000/svg" viewBox="0 0 67 105"><defs><style>.cls-1{fill:#fff;}.cls-2{fill:#f50;}.cls-3{isolation:isolate;}</style></defs><g id="Layer_3" data-name="Layer 3"><rect class="cls-1" width="67" height="105" rx="6"/></g><g id="Layer_1" data-name="Layer 1"><path class="cls-2" d="M29.84,32.76a7.36,7.36,0,0,0-10.4,0L19,33.2l-.44-.44a7.35,7.35,0,0,0-10.4,10.4L19,54,29.84,43.16A7.36,7.36,0,0,0,29.84,32.76Z"/></g><g id="Layer_2" data-name="Layer 2"><g id="A" class="cls-3"><g class="cls-3"><path class="cls-2" d="M12.45,6.65H25.77V10a17.76,17.76,0,0,0-1.59,2.23A31.44,31.44,0,0,0,22.64,15c-.5,1-.94,2.06-1.34,3.12a25.15,25.15,0,0,0-.93,3.1A13.07,13.07,0,0,0,20,24H15.62A16.59,16.59,0,0,1,16,21.45,26.36,26.36,0,0,1,17,18a31.08,31.08,0,0,1,1.81-4A28.21,28.21,0,0,1,21.56,10H12.45Z"/></g></g></g></svg>