<svg xmlns="http://www.w3.org/2000/svg" viewBox="0 0 67 105"><defs><style>.cls-1{fill:#fff;}.cls-2{fill:none;opacity:0.15;}.cls-3{fill:#00cf75;}.cls-4{isolation:isolate;}</style></defs><title>8C</title><g id="Layer_1" data-name="Layer 1"><rect class="cls-1" width="67" height="105" rx="6"/><rect class="cls-2" x="6" y="6" width="26" height="26"/><path class="cls-3" d="M27.39,13.42a8.45,8.45,0,0,0-16.78,0,8.45,8.45,0,0,0,3.84,16h9.1a8.45,8.45,0,0,0,3.84-16Z"/><polygon class="cls-3" points="21.6 32 19 29.4 16.4 32 21.6 32"/><path class="cls-1" d="M24.94,15.13a5.07,5.07,0,0,0,0-.68,6,6,0,0,0-12,0,5.38,5.38,0,0,0,0,.68,6,6,0,0,0,1.39,11.8A5.33,5.33,0,0,0,19,24.38a5.32,5.32,0,0,0,4.55,2.55,6,6,0,0,0,1.39-11.8Zm-1.39,10.5A4.68,4.68,0,0,1,19,22a4.68,4.68,0,0,1-4.55,3.59h0A4.69,4.69,0,0,1,9.77,21a4.75,4.75,0,0,1,1.81-3.69l.05,0,.26-.18L12,17l.23-.14.21-.1.17-.08A3.12,3.12,0,0,1,13,16.5l.13,0a4.79,4.79,0,0,1,1.32-.19h.24A4.35,4.35,0,0,1,14.36,15v0c0-.05,0-.1,0-.16s0-.21,0-.31v-.12c0-.11,0-.22,0-.32s0-.25.05-.37h0a4.67,4.67,0,0,1,9.22,0h0c0,.12,0,.25.05.37s0,.21,0,.32v.12c0,.11,0,.21,0,.32s0,.1,0,.16v0a4.42,4.42,0,0,1-.33,1.26h.24a4.55,4.55,0,0,1,1.28.18h0A4.63,4.63,0,0,1,26,17h0a4.67,4.67,0,0,1-2.47,8.64Z"/></g><g id="Layer_2" data-name="Layer 2"><g id="A"><g class="cls-4"><path class="cls-3" d="M19.1,38.41a8.94,8.94,0,0,1,3.29.57,5.2,5.2,0,0,1,2.29,1.67,4.34,4.34,0,0,1,.84,2.7,3.51,3.51,0,0,1-.72,2.23A4.88,4.88,0,0,1,23.06,47a3.62,3.62,0,0,1,1.51.77,4.91,4.91,0,0,1,1.22,1.48,3.76,3.76,0,0,1,.49,1.87,4.28,4.28,0,0,1-.9,2.72,5.64,5.64,0,0,1-2.51,1.78,10.6,10.6,0,0,1-3.77.62,10.45,10.45,0,0,1-3.75-.62,5.7,5.7,0,0,1-2.51-1.78,4.28,4.28,0,0,1-.9-2.72,3.86,3.86,0,0,1,.48-1.87,4.91,4.91,0,0,1,1.22-1.48,3.71,3.71,0,0,1,1.5-.77,5.12,5.12,0,0,1-1.73-1.43,3.51,3.51,0,0,1-.73-2.23,4.34,4.34,0,0,1,.84-2.7A5.23,5.23,0,0,1,15.82,39,9,9,0,0,1,19.1,38.41Zm0,14.81a3.28,3.28,0,0,0,2.1-.61A2,2,0,0,0,22,51a2.08,2.08,0,0,0-.35-1.19,2.23,2.23,0,0,0-1-.81,3.7,3.7,0,0,0-1.53-.28,3.67,3.67,0,0,0-1.51.28,2.32,2.32,0,0,0-1,.81A2.08,2.08,0,0,0,16.27,51,1.94,1.94,0,0,0,17,52.61,3.23,3.23,0,0,0,19.1,53.22Zm0-7.74a2.5,2.5,0,0,0,1.69-.59,2,2,0,0,0,.68-1.6,2,2,0,0,0-.68-1.61,2.67,2.67,0,0,0-3.37,0,2,2,0,0,0-.68,1.61,2,2,0,0,0,.68,1.6A2.51,2.51,0,0,0,19.1,45.48Z"/></g></g></g></svg>