<svg xmlns="http://www.w3.org/2000/svg" viewBox="0 0 67 105"><defs><style>.cls-1{fill:#fff;}.cls-2{fill:none;opacity:0.15;}.cls-3{fill:#f50;}.cls-4{isolation:isolate;}</style></defs><title>JH</title><g id="Layer_1" data-name="Layer 1"><rect class="cls-1" width="67" height="105" rx="6"/><rect class="cls-2" x="6" y="6" width="26" height="26"/><path class="cls-3" d="M19,32,8.16,21.16a7.35,7.35,0,0,1,10.4-10.4l.44.44.44-.44a7.35,7.35,0,0,1,10.4,10.4Z"/><path class="cls-3" d="M24.64,11.21a4.69,4.69,0,0,0-3.36,1.39l-.44.44L19,14.88,17.16,13l-.44-.44a4.76,4.76,0,0,0-6.72,0,4.76,4.76,0,0,0,0,6.72l9,9,9-9a4.76,4.76,0,0,0,0-6.72A4.71,4.71,0,0,0,24.64,11.21Z"/><path class="cls-1" d="M24.64,12.51a3.46,3.46,0,0,1,2.44,5.9L19,26.48l-8.08-8.07a3.46,3.46,0,0,1,4.89-4.89l.43.44,1.84,1.84.92.92.92-.92L21.76,14l.44-.44a3.42,3.42,0,0,1,2.44-1m0-1.3a4.69,4.69,0,0,0-3.36,1.39l-.44.44L19,14.88,17.16,13l-.44-.44a4.76,4.76,0,0,0-6.72,0,4.76,4.76,0,0,0,0,6.72l9,9,9-9a4.76,4.76,0,0,0,0-6.72,4.71,4.71,0,0,0-3.36-1.39Z"/></g><g id="Layer_2" data-name="Layer 2"><g id="A" class="cls-4"><g class="cls-4"><path class="cls-3" d="M22.58,50.84a9.81,9.81,0,0,1-.39,3,3.06,3.06,0,0,1-1.42,1.8,5.92,5.92,0,0,1-3,.61,14.78,14.78,0,0,1-1.69-.1c-.6-.07-1.06-.14-1.37-.21l0-3.71.77.14a5.26,5.26,0,0,0,.89.08,1.85,1.85,0,0,0,1.65-.64,3.78,3.78,0,0,0,.41-2V38.65h4.1Z"/></g></g></g></svg>