<svg xmlns="http://www.w3.org/2000/svg" width="40" height="40" viewBox="0 0 40 40"><g transform="translate(181.807 -142.858)"><rect width="39.999" height="39.999" transform="translate(-181.807 142.858)" fill="none" opacity="0.15"/><g transform="translate(-181.807 142.858)"><path d="M-148.907,154.275a13,13,0,0,0-12.9-11.417,13,13,0,0,0-12.9,11.417,13,13,0,0,0-7.1,11.583,13,13,0,0,0,13,13h14a13,13,0,0,0,13-13A13,13,0,0,0-148.907,154.275Z" transform="translate(181.807 -142.858)" fill="#2f06fc"/><path d="M-163.407,170.258l-4-4-4,4Z" transform="translate(187.407 -130.259)" fill="#2f06fc"/></g><path d="M-154,155.579a9.4,9.4,0,0,0,.06-1.051,9.209,9.209,0,0,0-9.2-9.2,9.21,9.21,0,0,0-9.2,9.2,8.935,8.935,0,0,0,.063,1.051,9.28,9.28,0,0,0-7.063,8.949,9.209,9.209,0,0,0,9.2,9.2,8.159,8.159,0,0,0,7-3.925,8.176,8.176,0,0,0,7,3.925,9.207,9.207,0,0,0,9.2-9.2A9.279,9.279,0,0,0-154,155.579Zm-2.138,16.147a7.205,7.205,0,0,1-7-5.525,7.2,7.2,0,0,1-7,5.526v0a7.209,7.209,0,0,1-7.2-7.2,7.257,7.257,0,0,1,2.791-5.675l.075-.058c.128-.1.262-.192.4-.283l.171-.106c.117-.074.234-.145.354-.211s.212-.108.32-.158c.086-.042.168-.086.255-.125.2-.086.4-.162.611-.229.065-.022.131-.037.2-.057a7.175,7.175,0,0,1,2.029-.3c.122,0,.242.012.363.018a7.183,7.183,0,0,1-.5-1.925l-.009-.074c-.009-.085-.015-.165-.022-.246-.012-.16-.023-.322-.025-.486,0-.028,0-.057,0-.085s0-.06,0-.091c0-.169.012-.335.026-.5.017-.188.042-.374.072-.557h0a7.206,7.206,0,0,1,7.1-6.054,7.206,7.206,0,0,1,7.1,6.054h0c.029.183.054.369.072.557.012.166.023.332.025.5,0,.031,0,.06,0,.091s0,.058,0,.088c0,.166-.012.331-.025.5-.006.078-.012.158-.022.238l0,.052a7.193,7.193,0,0,1-.509,1.941c.12-.006.237-.018.357-.018a7.128,7.128,0,0,1,1.972.278c.025.008.049.012.072.022a7.19,7.19,0,0,1,1.769.8v0a7.273,7.273,0,0,1,3.392,6.1A7.209,7.209,0,0,1-156.137,171.726Z" transform="translate(1.33 1.33)" fill="#151515"/></g></svg>