<svg xmlns="http://www.w3.org/2000/svg" width="40" height="40" viewBox="0 0 40 40"><g transform="translate(261 -19)"><rect width="40" height="40" transform="translate(-261 19)" fill="none" opacity="0.15"/><path d="M-241.005,57.6l-16.672-16.672a11.316,11.316,0,0,1,0-16,11.308,11.308,0,0,1,16,0l.672.672.672-.672a11.308,11.308,0,0,1,16,0,11.316,11.316,0,0,1,0,16Z" transform="translate(0.005 1.404)" fill="#2f06fc"/><path d="M-233.734,26.208a5.279,5.279,0,0,1,3.757,1.558,5.275,5.275,0,0,1,1.552,3.757,5.279,5.279,0,0,1-1.552,3.758l-12.429,12.429-12.429-12.429a5.322,5.322,0,0,1,0-7.517,5.271,5.271,0,0,1,3.755-1.557,5.283,5.283,0,0,1,3.758,1.558l.671.672,2.829,2.828,1.414,1.414,1.414-1.414,2.829-2.828.674-.674a5.271,5.271,0,0,1,3.755-1.557m0-2a7.258,7.258,0,0,0-5.171,2.143l-.674.674-2.828,2.828-2.828-2.828-.672-.672a7.259,7.259,0,0,0-5.172-2.145,7.26,7.26,0,0,0-5.171,2.143,7.323,7.323,0,0,0,0,10.345l13.843,13.843L-228.563,36.7a7.321,7.321,0,0,0,0-10.343,7.255,7.255,0,0,0-5.171-2.145Z" transform="translate(1.406 2.804)" fill="#151515"/></g></svg>