<svg id="Layer_1" data-name="Layer 1" xmlns="http://www.w3.org/2000/svg" viewBox="0 0 240 40.62"><defs><style>.cls-1{fill:#061727;}.cls-2{fill:#2f06fc;}</style></defs><title>logo</title><path class="cls-1" d="M60.18,9.72a8.57,8.57,0,0,1,4,.92A7.76,7.76,0,0,1,67,13.13a7.39,7.39,0,0,1,1.28,3.5H64.65a5.59,5.59,0,0,0-.8-2,4.17,4.17,0,0,0-1.52-1.43,4.51,4.51,0,0,0-2.25-.53,4.87,4.87,0,0,0-2.79.78,4.84,4.84,0,0,0-1.75,2.46,13,13,0,0,0-.61,4.36c0,2.72.45,4.69,1.34,5.93A4.42,4.42,0,0,0,60.08,28a4.14,4.14,0,0,0,2.25-.58,4.31,4.31,0,0,0,1.52-1.54,6.35,6.35,0,0,0,.8-2.1h3.66a10.28,10.28,0,0,1-.7,2.68,7.3,7.3,0,0,1-1.51,2.29,6.78,6.78,0,0,1-2.43,1.58,9.41,9.41,0,0,1-3.49.58,8.81,8.81,0,0,1-4.87-1.3,8.42,8.42,0,0,1-3.13-3.71,13.9,13.9,0,0,1-1.09-5.72,13.21,13.21,0,0,1,1.09-5.63A8.06,8.06,0,0,1,55.29,11,9.21,9.21,0,0,1,60.18,9.72Z"/><path class="cls-1" d="M75.13,30.92a5.9,5.9,0,0,1-2.53-.52,4.17,4.17,0,0,1-1.76-1.5,4.27,4.27,0,0,1-.63-2.37A4.21,4.21,0,0,1,72,22.85c1.18-.83,3-1.26,5.63-1.3l2.2-.06v-1a2.38,2.38,0,0,0-.7-1.83A3,3,0,0,0,77,18a4.12,4.12,0,0,0-2,.51,2.41,2.41,0,0,0-1.17,1.64h-3a4.53,4.53,0,0,1,.88-2.53,4.71,4.71,0,0,1,2.18-1.52,9.2,9.2,0,0,1,3.19-.51,8.8,8.8,0,0,1,3.44.56,4,4,0,0,1,2,1.6,4.82,4.82,0,0,1,.62,2.53V30.64H80.21L79.94,28a4.86,4.86,0,0,1-2,2.31A6,6,0,0,1,75.13,30.92Zm1.13-2.35a3.53,3.53,0,0,0,1.27-.24,4,4,0,0,0,1.14-.64,3.51,3.51,0,0,0,.82-.91,2,2,0,0,0,.31-1V23.42l-1.82,0a9.5,9.5,0,0,0-2.34.28,3.36,3.36,0,0,0-1.56.86,2.24,2.24,0,0,0-.56,1.58,2.14,2.14,0,0,0,.78,1.76A3,3,0,0,0,76.26,28.57Z"/><path class="cls-1" d="M90.54,30.85a6,6,0,0,1-2.28-.36A2.87,2.87,0,0,1,87,29.54a3.22,3.22,0,0,1-.55-1.35,8.62,8.62,0,0,1-.13-1.53V10h3.39V26.26a2.39,2.39,0,0,0,.4,1.48,1.67,1.67,0,0,0,1.27.61l.74,0v2.19l-.78.2A4.2,4.2,0,0,1,90.54,30.85Z"/><path class="cls-1" d="M98.4,30.85a6,6,0,0,1-2.28-.36,2.87,2.87,0,0,1-1.29-.95,3.22,3.22,0,0,1-.55-1.35,8.62,8.62,0,0,1-.13-1.53V10h3.39V26.26a2.39,2.39,0,0,0,.4,1.48,1.67,1.67,0,0,0,1.27.61l.74,0v2.19l-.78.2A4.2,4.2,0,0,1,98.4,30.85Z"/><rect class="cls-1" x="102.11" y="10.02" width="3.44" height="3.28"/><rect class="cls-1" x="102.17" y="15.89" width="3.34" height="14.75"/><path class="cls-1" d="M108.77,30.64V15.89h3.4V18a4.9,4.9,0,0,1,.93-1.1,4.55,4.55,0,0,1,1.46-.86,5.74,5.74,0,0,1,2-.33,5.87,5.87,0,0,1,2.55.55,4.3,4.3,0,0,1,1.9,1.69,5.59,5.59,0,0,1,.72,3v9.7h-3.48V21.35a2.74,2.74,0,0,0-.8-2.16,2.92,2.92,0,0,0-2-.71,4.33,4.33,0,0,0-1.57.28,2.87,2.87,0,0,0-1.21.84,2.15,2.15,0,0,0-.46,1.41v9.63Z"/><path class="cls-1" d="M131.17,35.52a13.19,13.19,0,0,1-5.72-1,3.05,3.05,0,0,1-2-2.74,2.17,2.17,0,0,1,.39-1.32,3.23,3.23,0,0,1,.91-.86,6,6,0,0,1,1-.53,5.6,5.6,0,0,0,.57-.27l-.64-.37a2.68,2.68,0,0,1-.72-.63,1.59,1.59,0,0,1-.32-1,1.8,1.8,0,0,1,.7-1.37,4.44,4.44,0,0,1,2.12-.9,5.12,5.12,0,0,1-2.12-1.81,4.26,4.26,0,0,1-.74-2.37,3.85,3.85,0,0,1,.84-2.5,5.41,5.41,0,0,1,2.37-1.6,10.28,10.28,0,0,1,3.52-.55,8,8,0,0,1,2.45.32,8.08,8.08,0,0,1,1.82.89l.8-.32,1.14-.46,1.17-.48,1-.4,0,2.87-2.56.46a4.75,4.75,0,0,1,.3.9,4,4,0,0,1,.1.85,4.24,4.24,0,0,1-.72,2.38,5,5,0,0,1-2.15,1.75,8.74,8.74,0,0,1-3.58.65h-.58l-.6,0a4.11,4.11,0,0,0-1.58.27c-.29.15-.43.32-.43.5s.21.43.64.51a15.83,15.83,0,0,0,2,.23l1.32.07,1.81.12A6.33,6.33,0,0,1,137.46,28a3.57,3.57,0,0,1,1.3,2.86,3.94,3.94,0,0,1-1.88,3.35A10,10,0,0,1,131.17,35.52Zm.59-2a5.77,5.77,0,0,0,2.76-.52,1.63,1.63,0,0,0,.9-1.51,1.51,1.51,0,0,0-.61-1.25,3.28,3.28,0,0,0-1.83-.58l-3.72-.22a2.38,2.38,0,0,0-2,.94,1.68,1.68,0,0,0-.35,1,1.71,1.71,0,0,0,1.2,1.58A9.51,9.51,0,0,0,131.76,33.48ZM131.13,23a3.34,3.34,0,0,0,2.19-.69,2.37,2.37,0,0,0,.85-2,2.55,2.55,0,0,0-.85-2.05,3.2,3.2,0,0,0-2.19-.73,3.26,3.26,0,0,0-2.24.74,2.57,2.57,0,0,0-.84,2,2.46,2.46,0,0,0,.81,1.94A3.35,3.35,0,0,0,131.13,23Z"/><path class="cls-1" d="M156.71,30.92a11.4,11.4,0,0,1-2.92-.37,9.17,9.17,0,0,1-2.59-1.13,6.78,6.78,0,0,1-1.94-1.87,5.8,5.8,0,0,1-.94-2.62h3.6a3.61,3.61,0,0,0,.9,1.76,4.31,4.31,0,0,0,1.67,1.08,6.29,6.29,0,0,0,2.21.37A7.24,7.24,0,0,0,159,27.8a3.81,3.81,0,0,0,1.65-1,2.31,2.31,0,0,0,.6-1.61,2.28,2.28,0,0,0-.44-1.43,3.26,3.26,0,0,0-1.23-1,8.54,8.54,0,0,0-1.85-.61l-3.8-.83a6.88,6.88,0,0,1-3.63-1.82,5,5,0,0,1-1.37-3.61,5.34,5.34,0,0,1,1-3.26,6.52,6.52,0,0,1,2.74-2.16,9.72,9.72,0,0,1,3.94-.76,10,10,0,0,1,4.33.84,6.25,6.25,0,0,1,2.67,2.23,5.64,5.64,0,0,1,.92,3.07H161a3.65,3.65,0,0,0-.73-2,3.41,3.41,0,0,0-1.55-1,6.6,6.6,0,0,0-2.09-.31,5.77,5.77,0,0,0-1.59.2,4,4,0,0,0-1.3.58,2.81,2.81,0,0,0-.86.93,2.49,2.49,0,0,0-.31,1.25,2.11,2.11,0,0,0,.66,1.62,5.53,5.53,0,0,0,2.49,1.05l3.71.83a7.89,7.89,0,0,1,2.78,1,5,5,0,0,1,1.61,1.56,5.23,5.23,0,0,1,.75,1.79,9,9,0,0,1,.18,1.74,4.78,4.78,0,0,1-1,2.93,6.66,6.66,0,0,1-2.8,2.07A10.86,10.86,0,0,1,156.71,30.92Z"/><path class="cls-1" d="M175.89,18.34h-3.3V26.8a2.28,2.28,0,0,0,.15,1,.73.73,0,0,0,.49.4,3.13,3.13,0,0,0,.91.1H176v2.19a3.93,3.93,0,0,1-.87.21,10.42,10.42,0,0,1-1.54.09,6.41,6.41,0,0,1-2.72-.46A2.65,2.65,0,0,1,169.49,29a5.23,5.23,0,0,1-.37-2V18.34h-2.39V15.89h2.49l.87-4.38h2.5v4.36h3.3Z"/><path class="cls-1" d="M182.65,30.92a5.87,5.87,0,0,1-2.53-.52,4.09,4.09,0,0,1-1.76-1.49,4.33,4.33,0,0,1-.63-2.38,4.19,4.19,0,0,1,1.76-3.68q1.75-1.25,5.63-1.3l2.19-.06v-1a2.41,2.41,0,0,0-.69-1.83,3,3,0,0,0-2.15-.65,4.12,4.12,0,0,0-2,.51,2.45,2.45,0,0,0-1.17,1.65h-3a4.46,4.46,0,0,1,.88-2.54,4.73,4.73,0,0,1,2.18-1.52,9.16,9.16,0,0,1,3.19-.51,9,9,0,0,1,3.44.56,3.93,3.93,0,0,1,2,1.6,4.85,4.85,0,0,1,.63,2.53V30.64h-2.92L187.46,28a4.82,4.82,0,0,1-2,2.31A6,6,0,0,1,182.65,30.92Zm1.12-2.35a3.58,3.58,0,0,0,1.28-.24,4.28,4.28,0,0,0,1.14-.64,3.51,3.51,0,0,0,.82-.91,2,2,0,0,0,.3-1V23.42l-1.81,0a9.5,9.5,0,0,0-2.34.28,3.29,3.29,0,0,0-1.56.87,2.42,2.42,0,0,0,.22,3.33A3,3,0,0,0,183.77,28.57Z"/><path class="cls-1" d="M201.88,18.34h-3.3l0,8.46a2.28,2.28,0,0,0,.15,1,.71.71,0,0,0,.48.4,3.22,3.22,0,0,0,.91.1H202v2.19a4,4,0,0,1-.86.21,10.57,10.57,0,0,1-1.55.09,6.41,6.41,0,0,1-2.72-.46A2.63,2.63,0,0,1,195.49,29a5.06,5.06,0,0,1-.37-2V18.34h-2.4V15.89h2.5l.87-4.38h2.49v4.36h3.3Z"/><path class="cls-1" d="M208.24,10V13.3H204.8V10Zm0,5.87V30.64h-3.34V15.89Z"/><path class="cls-1" d="M217.67,30.92A7.3,7.3,0,0,1,214,30a6.2,6.2,0,0,1-2.43-2.61,8.84,8.84,0,0,1-.86-4.08,9.21,9.21,0,0,1,.83-4,6.35,6.35,0,0,1,2.41-2.71,7.7,7.7,0,0,1,7.41,0,6.2,6.2,0,0,1,2.41,2.65,9.42,9.42,0,0,1,.85,4.15,9.11,9.11,0,0,1-.81,4A6.23,6.23,0,0,1,221.45,30,7,7,0,0,1,217.67,30.92Zm0-2.64a3,3,0,0,0,2-.65,3.89,3.89,0,0,0,1.16-1.8,8.32,8.32,0,0,0,.38-2.6,8.92,8.92,0,0,0-.34-2.49,3.86,3.86,0,0,0-1.11-1.84,3,3,0,0,0-2.06-.69,3.08,3.08,0,0,0-2,.64,3.72,3.72,0,0,0-1.18,1.77,8,8,0,0,0-.39,2.61,8.24,8.24,0,0,0,.35,2.49,4,4,0,0,0,1.13,1.86A3,3,0,0,0,217.69,28.28Z"/><path class="cls-1" d="M227,30.64V15.89h3.4V18a4.9,4.9,0,0,1,.93-1.1A4.79,4.79,0,0,1,232.8,16a5.74,5.74,0,0,1,2-.33,6,6,0,0,1,2.54.55,4.36,4.36,0,0,1,1.9,1.69,5.59,5.59,0,0,1,.72,3v9.7h-3.48V21.35a2.74,2.74,0,0,0-.8-2.16,2.92,2.92,0,0,0-2-.71,4.55,4.55,0,0,0-1.57.28,2.87,2.87,0,0,0-1.21.84,2.15,2.15,0,0,0-.46,1.41v9.63Z"/><path class="cls-2" d="M32.12,0H8.5A8.51,8.51,0,0,0,0,8.5V32.12a8.51,8.51,0,0,0,8.5,8.5H32.12a8.51,8.51,0,0,0,8.5-8.5V8.5A8.51,8.51,0,0,0,32.12,0ZM2.84,32l6.75-7.91a6.13,6.13,0,0,1,8.65-.58l15.7,13.7-18.6-7.87A9,9,0,0,0,3.58,34.12l-.16.41a5.59,5.59,0,0,1-.58-2.41Zm2.7,4.83.67-1.62a6.13,6.13,0,0,1,8-3.26L28,37.78H8.5A5.53,5.53,0,0,1,5.54,36.83Zm-2.7-9.2V23.05l11.14-8a6.15,6.15,0,0,1,8.58,1.35L36.49,35.58l0,.05L20.11,21.37a9,9,0,0,0-12.66.86Zm0-8.08V13.78L23.17,7.12a6.14,6.14,0,0,1,7.74,3.94l6.86,21.12c0,.1-.05.17-.05.27L24.85,14.74a9,9,0,0,0-12.53-2ZM32.12,2.84A5.67,5.67,0,0,1,37.78,8.5V23L33.6,10.19A9,9,0,0,0,22.29,4.43L2.84,10.79V8.5A5.67,5.67,0,0,1,8.5,2.84Z"/></svg>