<svg id="Layer_1" data-name="Layer 1" xmlns="http://www.w3.org/2000/svg" viewBox="0 0 44.15 61.46"><defs><style>.cls-1{fill:#eee;}.cls-2{fill:#061727;}</style></defs><polygon class="cls-1" points="38.86 22.89 42.24 20.48 38.86 18.06 41.43 14.79 37.5 13.43 39.04 9.57 34.89 9.37 35.28 5.24 31.25 6.21 30.46 2.13 26.85 4.2 24.94 0.51 22.08 3.52 19.21 0.51 17.3 4.2 13.7 2.13 12.91 6.21 8.87 5.24 9.26 9.37 5.11 9.57 6.65 13.43 2.72 14.79 5.29 18.06 1.91 20.48 5.29 22.89 2.72 26.16 6.65 27.52 5.11 31.38 9.26 31.58 8.87 35.72 12.91 34.74 13.69 38.82 17.3 36.75 19.21 40.44 22.08 37.43 24.94 40.44 26.85 36.75 30.46 38.82 31.24 34.74 35.28 35.72 34.89 31.58 39.04 31.38 37.5 27.52 41.43 26.16 38.86 22.89"/><path class="cls-2" d="M15.92,27.9V25.35a4.83,4.83,0,0,1,.48-2.23,5.52,5.52,0,0,1,1.27-1.64,10.28,10.28,0,0,1,1.74-1.23q.93-.53,1.89-1c.63-.31,1.21-.63,1.74-.94a5,5,0,0,0,1.27-1.06,2.12,2.12,0,0,0,.48-1.39,2.16,2.16,0,0,0-.71-1.66,2.79,2.79,0,0,0-1.94-.64A3.31,3.31,0,0,0,20,14.3a3.42,3.42,0,0,0-1.1,2.23H15.6a6.11,6.11,0,0,1,.76-2.93,5.18,5.18,0,0,1,2.2-2.09,7.73,7.73,0,0,1,3.67-.78,7.68,7.68,0,0,1,3.28.65,5,5,0,0,1,2.12,1.79,4.78,4.78,0,0,1,.75,2.68,4.72,4.72,0,0,1-1.71,3.78A9.22,9.22,0,0,1,25,20.78c-.61.33-1.23.63-1.84.91s-1.18.57-1.69.86a4.73,4.73,0,0,0-1.24,1,2,2,0,0,0-.47,1.33V25h8.63V27.9Z"/><path class="cls-1" d="M26.28,46.75a6.77,6.77,0,0,1-2.87,3.51,7,7,0,0,1-.49-4.45,7.07,7.07,0,0,1,2.73-3.56A6.8,6.8,0,0,1,26.28,46.75Z"/><path class="cls-1" d="M31.8,44.63a6.8,6.8,0,0,1-2.05,4,7,7,0,0,1-1.43-4.25,7,7,0,0,1,1.89-4.06A6.76,6.76,0,0,1,31.8,44.63Z"/><path class="cls-1" d="M36.67,41.54a6.78,6.78,0,0,1-1.3,4.35A7,7,0,0,1,33.21,42a7,7,0,0,1,1.13-4.33A6.79,6.79,0,0,1,36.67,41.54Z"/><path class="cls-1" d="M41.91,40.65a6.73,6.73,0,0,1-4,2.19,7,7,0,0,1,1.21-4.31A7,7,0,0,1,43,36.24,6.81,6.81,0,0,1,41.91,40.65Z"/><path class="cls-1" d="M40.3,47.41a6.78,6.78,0,0,1-4.37-1.24A7,7,0,0,1,39.82,44,7.06,7.06,0,0,1,44.16,45,6.78,6.78,0,0,1,40.3,47.41Z"/><path class="cls-1" d="M34.19,51.16a6.83,6.83,0,0,1-4-2.08,7,7,0,0,1,4.26-1.4,7,7,0,0,1,4,1.92A6.78,6.78,0,0,1,34.19,51.16Z"/><path class="cls-1" d="M27.24,53.76a6.72,6.72,0,0,1-3.64-2.71A7.09,7.09,0,0,1,28,50.36a7.06,7.06,0,0,1,3.67,2.56A6.74,6.74,0,0,1,27.24,53.76Z"/><path class="cls-1" d="M17.87,46.75a6.77,6.77,0,0,0,2.87,3.51,7,7,0,0,0,.49-4.45,7.08,7.08,0,0,0-2.72-3.56A6.77,6.77,0,0,0,17.87,46.75Z"/><path class="cls-1" d="M12.35,44.63a6.8,6.8,0,0,0,2.05,4,7.08,7.08,0,0,0,1.44-4.25,7.06,7.06,0,0,0-1.9-4.06A6.82,6.82,0,0,0,12.35,44.63Z"/><path class="cls-1" d="M7.48,41.54a6.78,6.78,0,0,0,1.3,4.35A7.07,7.07,0,0,0,11,42a7.05,7.05,0,0,0-1.14-4.33A6.79,6.79,0,0,0,7.48,41.54Z"/><path class="cls-1" d="M2.24,40.65a6.73,6.73,0,0,0,4,2.19A7,7,0,0,0,5,38.53a7,7,0,0,0-3.85-2.29A6.81,6.81,0,0,0,2.24,40.65Z"/><path class="cls-1" d="M3.85,47.41a6.78,6.78,0,0,0,4.37-1.24A7,7,0,0,0,4.33,44,7.06,7.06,0,0,0,0,45,6.78,6.78,0,0,0,3.85,47.41Z"/><path class="cls-1" d="M10,51.16a6.79,6.79,0,0,0,4-2.08,7,7,0,0,0-4.26-1.4,7,7,0,0,0-4,1.92A6.78,6.78,0,0,0,10,51.16Z"/><path class="cls-1" d="M16.91,53.76a6.72,6.72,0,0,0,3.64-2.71,7.07,7.07,0,0,0-4.42-.69,7.06,7.06,0,0,0-3.68,2.56A6.74,6.74,0,0,0,16.91,53.76Z"/></svg>