<svg xmlns="http://www.w3.org/2000/svg" width="40" height="40" viewBox="0 0 40 40"><g transform="translate(181.807 107.142)"><rect width="40" height="40" transform="translate(-181.807 -107.142)" fill="none" opacity="0.15"/><path d="M-145.141-90.47l-16.671-16.672L-178.484-90.47a11.313,11.313,0,0,0,0,16,11.276,11.276,0,0,0,3.455,2.362,11.319,11.319,0,0,0,4.545.954h17.343a11.225,11.225,0,0,0,1.654-.122,11.258,11.258,0,0,0,6.346-3.194A11.313,11.313,0,0,0-145.141-90.47Z" transform="translate(0.005 0)" fill="#2f06fc"/><path d="M-171.885-77.134h17.343a7.264,7.264,0,0,0,5.171-2.143,7.321,7.321,0,0,0,0-10.345l-13.843-13.843-13.845,13.843a7.323,7.323,0,0,0,0,10.343A7.265,7.265,0,0,0-171.885-77.134Z" transform="translate(1.406 1.98)" fill="#2f06fc"/><path d="M-163.213-100.637l12.429,12.429a5.323,5.323,0,0,1,0,7.517,5.275,5.275,0,0,1-3.757,1.557h-17.343a5.279,5.279,0,0,1-3.757-1.558A5.28,5.28,0,0,1-177.2-84.45a5.28,5.28,0,0,1,1.554-3.758l12.429-12.429m0-2.828-13.845,13.843a7.323,7.323,0,0,0,0,10.343,7.265,7.265,0,0,0,5.172,2.145h17.343a7.261,7.261,0,0,0,5.171-2.143,7.321,7.321,0,0,0,0-10.345l-13.843-13.843Z" transform="translate(1.406 1.98)" fill="#151515"/><path d="M-171.4-79.742l4-4,4,4Z" transform="translate(5.605 12.6)" fill="#2f06fc"/></g></svg>