<svg id="Layer_1" data-name="Layer 1" xmlns="http://www.w3.org/2000/svg" viewBox="0 0 44.15 61.46"><defs><style>.cls-1{fill:#ffb45e;}.cls-2{fill:#fff;}</style></defs><path class="cls-1" d="M35.08,11V4H9.1v7H0v9.33L12.77,33.1v0l7.78,7.77v7.33H18.23v3.08H13.5v10.2H30.67V51.26H25.94V48.18H23.63V40.85l7.75-7.75,1.54-1.54L44.15,20.33V11ZM3,14H9.1V25.18L3,19.09Zm38.15,5.09-6.07,6.07V14h6.07Z"/><path class="cls-2" d="M21,27.9V15.22H18V13.29A8.33,8.33,0,0,0,20.36,13a2.75,2.75,0,0,0,1.34-.8A2.25,2.25,0,0,0,22.23,11H24.5V27.9Z"/></svg>